<?xml version="1.0" encoding="utf-8"?>
<!-- Generator: Adobe Illustrator 24.0.2, SVG Export Plug-In . SVG Version: 6.00 Build 0)  -->
<svg version="1.1" xmlns="http://www.w3.org/2000/svg" xmlns:xlink="http://www.w3.org/1999/xlink" x="0px" y="0px"
	 viewBox="0 0 508.2 363.6" style="enable-background:new 0 0 508.2 363.6;" xml:space="preserve">
<style type="text/css">
	.st0{display:none;}
	.st1{display:inline;fill:none;stroke:#83AC3F;stroke-width:3;stroke-miterlimit:10;}
	.st2{fill:#83AC3F;}
	.st3{fill:#8DC044;}
	.st4{display:inline;fill:#95C11F;}
	.st5{display:inline;fill:none;stroke:#FFFFFF;stroke-width:20;stroke-linecap:round;stroke-linejoin:round;stroke-miterlimit:10;}
	.st6{display:inline;fill:none;stroke:#FFFFFF;stroke-width:20;stroke-linecap:round;stroke-miterlimit:10;}
	.st7{fill:#2D2E83;}
	.st8{display:inline;}
	.st9{fill:#DEDC00;}
	.st10{fill:#FFFFFF;}
	.st11{font-family:'BauhausITCbyBT-Medium';}
	.st12{font-size:130px;}
	.st13{font-family:'BauhausLT-Medium';}
	.st14{font-size:99.0526px;}
	.st15{display:inline;fill:#999A35;stroke:#FFFFFF;stroke-miterlimit:10;}
	.st16{display:none;fill:#999A35;}
	.st17{font-size:39.8823px;}
	.st18{letter-spacing:-2;}
	.st19{fill:#999A35;}
	.st20{display:inline;fill:#FAD541;stroke:#FAD541;stroke-miterlimit:10;}
</style>
<g id="Capa_6" class="st0">
	<path class="st1" d="M512.1,234.6H23.3c-4.42,0-8-3.58-8-8v-58.5c0-4.42,3.58-8,8-8h488.8c4.42,0,8,3.58,8,8v58.5
		C520.1,231.02,516.52,234.6,512.1,234.6z"/>
</g>
<g id="Capa_9">
	<polygon class="st2" points="427.97,299 6.8,275.31 47.96,4 505.34,126.73 	"/>
	<circle class="st3" cx="-54.4" cy="87.62" r="17.4"/>
	<circle class="st2" cx="-54.4" cy="132.02" r="17.4"/>
</g>
<g id="Capa_10" class="st0">
	<polygon class="st4" points="89.6,105.8 89.6,223.89 286.8,252.78 401.4,136.6 396.75,110.78 	"/>
</g>
<g id="Capa_7" class="st0">
	<polyline class="st5" points="-15.4,-1.8 49.4,24.6 77.12,221.95 409.33,266.74 	"/>
	<path class="st5" d="M340.73,217.79c0,0,92.67-74.39,92.67-99.19s-42-28.4-42-28.4L89.6,38.8v227c0,0-1.6,14.25,15.2,17.93
		s31.6-29.53,31.6-29.53"/>
	<path class="st6" d="M409.33,227.51c21.42,0,38.79,17.56,38.79,39.22c0,21.66-17.37,39.22-38.79,39.22
		c-21.42,0-38.79-17.56-38.79-39.22c0-0.84,0.03-1.67,0.08-2.49"/>
</g>
<g id="Capa_11">
	<path class="st7" d="M105.41,281.86L105.41,281.86c-16.11,3.77-32.23-6.24-36-22.35L18.96,43.9c-3.77-16.11,6.24-32.23,22.35-36
		l0,0c16.11-3.77,32.23,6.24,36,22.35l50.45,215.61C131.53,261.97,121.52,278.09,105.41,281.86z"/>
	<path class="st7" d="M165.06,244.42L165.06,244.42c-16.11,3.77-32.23-6.24-36-22.35L93.69,70.91c-3.77-16.11,6.24-32.23,22.35-36
		l0,0c16.11-3.77,32.23,6.24,36,22.35l35.37,151.16C191.18,224.53,181.17,240.65,165.06,244.42z"/>
	<path class="st7" d="M235.44,252.81L235.44,252.81c-16.11,3.77-32.23-6.24-36-22.35L164.71,82.02c-3.77-16.11,6.24-32.23,22.35-36
		l0,0c16.11-3.77,32.23,6.24,36,22.35l34.73,148.45C261.56,232.93,251.55,249.04,235.44,252.81z"/>
	<path class="st7" d="M305.71,260.77L305.71,260.77c-16.11,3.77-32.23-6.24-36-22.35l-33.5-143.17c-3.77-16.11,6.24-32.23,22.35-36
		l0,0c16.11-3.77,32.23,6.24,36,22.35l33.5,143.17C331.83,240.89,321.82,257,305.71,260.77z"/>
	<path class="st7" d="M380.13,286.43L380.13,286.43c-16.11,3.77-32.23-6.24-36-22.35l-36.09-154.26c-3.77-16.11,6.24-32.23,22.35-36
		l0,0c16.11-3.77,32.23,6.24,36,22.35l36.09,154.26C406.24,266.54,396.24,282.66,380.13,286.43z"/>
	<path class="st7" d="M447.47,294.86L447.47,294.86c-16.11,3.77-32.23-6.24-36-22.35v0c-3.77-16.11,6.24-32.23,22.35-36l0,0
		c16.11-3.77,32.23,6.24,36,22.35v0C473.58,274.97,463.58,291.09,447.47,294.86z"/>
</g>
<g id="Capa_4" class="st0">
	<g class="st8">
		<g>
			<path class="st9" d="M161.28,95.97c0,0,106.14-123.41,320.44-6.05C481.72,89.91,324.29,143,161.28,95.97z"/>
			<g>
				<g>
					<g>
						<g>
							<path class="st9" d="M160.7,100.85c-0.94-0.33-0.83,0.57-1.02,0.67C161.35,101.78,160.71,100.63,160.7,100.85z"/>
							<polygon class="st9" points="177.07,103.26 176.71,103.52 179.26,103.26 							"/>
							<path class="st9" d="M192.01,106.74c-1.12-1.67-5.46-1.03-8.02-2.13l-0.36-0.42l-1.46,0.84
								C185.45,105.6,189.81,105.88,192.01,106.74z"/>
							<path class="st9" d="M199.43,111.38c-0.39-0.65,1.84-0.12-1.85-0.55c0.17,0.1,0.22,0.14,0.31,0.21
								C198.23,111.1,198.67,111.19,199.43,111.38z"/>
							<path class="st9" d="M197.9,111.04C196.29,110.76,198.85,111.71,197.9,111.04L197.9,111.04z"/>
							<path class="st9" d="M205.32,112.2l-2.19,0.07c0.38,0.41,2.23,0.86,1.5,0.95C206.83,113.38,206.44,112.96,205.32,112.2z"/>
							<path class="st9" d="M207.5,111.53l-1.13,0.02C206.54,111.72,206.82,111.82,207.5,111.53z"/>
							<path class="st9" d="M203.98,111.54c0.8,0,1.59,0.03,2.39,0.01c-0.26-0.28-0.21-0.73-1.09-0.04
								C205.55,111.13,205.02,111.44,203.98,111.54z"/>
							<path class="st9" d="M202.72,111.06c-1.12-0.54-2.59-1.04-0.4-1.1C198.28,109.35,198.67,110.46,202.72,111.06z"/>
							<path class="st9" d="M193.09,105.45l-1.47-0.72l-1.44,0.16C190.89,104.84,193.09,105.91,193.09,105.45z"/>
							<path class="st9" d="M218.34,115.16c0.18-0.28-0.58-0.92-0.68-1.33l-1.61,0.08C216.81,114.26,218.3,114.7,218.34,115.16z"/>
							<path class="st9" d="M217.66,113.84l2.41-0.12C218,113.3,217.58,113.48,217.66,113.84z"/>
							<path class="st9" d="M208.15,110.03c-1.34,0.16-2.67,0.28-4,0.37c1.57-0.04,3.16-0.15,4.74-0.26L208.15,110.03z"/>
							<polygon class="st9" points="227.27,116.52 225.84,117.03 228.36,116.3 							"/>
							<path class="st9" d="M233.23,117.22c-1.06,0.44,1.22,1.16,0.14,1.38c1.63,0.13,3.07-0.19,4.37-0.51
								C236.38,118.2,234.98,117.95,233.23,117.22z"/>
							<path class="st9" d="M239.9,117.66c-0.68,0.07-1.39,0.24-2.17,0.42C238.46,118.02,239.17,117.91,239.9,117.66z"/>
							<path class="st9" d="M224.02,114.44c0.15,0.21,0.43,0.73,1.72,1.11l-0.8-0.97C224.66,114.54,224.34,114.49,224.02,114.44z"/>
							<path class="st9" d="M224.91,114.55l0.03,0.03c0.99,0.16,1.68,0.27,1.98,0.32C226.66,114.86,226.06,114.75,224.91,114.55z"/>
							<path class="st9" d="M223.79,114.41c0.08,0.01,0.15,0.02,0.23,0.04C223.94,114.35,223.89,114.31,223.79,114.41z"/>
							<path class="st9" d="M214.11,111.82c1.45-0.24,4.36-0.27,1.74-1.45C214.77,110.78,216.28,111.46,214.11,111.82z"/>
							<path class="st9" d="M222.81,113.19c-0.82-0.18-1.63-0.35-2.44-0.56c0.01,0.23,0.41,0.63-0.3,0.75
								C220.97,113.34,221.89,113.27,222.81,113.19z"/>
							<polygon class="st9" points="224.06,113.09 222.81,113.19 223.71,113.39 							"/>
							<path class="st9" d="M235.73,116.39c1.12-0.23,2.3-0.15,3.64-0.06c-1.4-0.34-2.87-0.54-4.26-0.76
								C234.88,115.81,234.2,116.21,235.73,116.39z"/>
							<path class="st9" d="M230.48,115.42c0.08,0,0.17-0.01,0.24-0.02C230.59,115.31,230.47,115.27,230.48,115.42z"/>
							<path class="st9" d="M252.45,117.73c-0.07-0.06-0.13-0.11-0.2-0.17c-0.02,0.05-0.04,0.1-0.06,0.14L252.45,117.73z"/>
							<path class="st9" d="M234.89,115.38c-1.05-0.31-1.71-0.19-2.35-0.01c0.81,0.03,1.66,0.09,2.57,0.21
								C235.21,115.47,235.24,115.39,234.89,115.38z"/>
							<path class="st9" d="M243.61,117.66c-0.54-0.24-1.16-0.46-1.8-0.67C242.32,117.32,243.38,117.86,243.61,117.66z"/>
							<path class="st9" d="M231.05,115.69c-0.06,0.01-0.11,0.01-0.16,0.02C231.21,115.93,231.18,115.84,231.05,115.69z"/>
							<path class="st9" d="M231.05,115.69c0.57-0.05,1.03-0.2,1.48-0.32c-0.66-0.02-1.27-0.02-1.81,0.04
								C230.85,115.48,230.97,115.59,231.05,115.69z"/>
							<path class="st9" d="M256.89,112.59c-0.25,0.77-3.12,1.27-5.46,0.23c-2.43,0.32-1.14,3.13,0.82,4.74
								c0.11-0.34,0.14-0.66,2.64-0.92c-0.83-0.5-5.36-1.46-3.22-2c3.29-0.14,2.64,0.5,4.18,1.05c-1.26-1.09,4.26-1.09,3.66-2.6
								l-2.88,0.28C256.6,113.13,257.66,112.86,256.89,112.59z"/>
							<path class="st9" d="M247.57,117l-1.02-0.01c1.14,0.26,1.93,0.67,3.4,1.45c1.72-0.2,2.1-0.5,2.24-0.74
								c-1.66-0.15-3.32-0.42-4.98-0.62L247.57,117z"/>
							<path class="st9" d="M242.01,116.49c0.89-0.77,3.35-0.87,1.97-1.96c-2.97-0.26-2.15,0.49-3.97,0.67
								c4.81,0.31-1.43,0.33,1.97,1.19c-0.96,0.04-1.81-0.01-2.62-0.06c0.85,0.2,1.67,0.42,2.44,0.66c-0.04-0.03-0.07-0.04-0.1-0.07
								l-0.02,0l0.01-0.01c-0.19-0.13-0.26-0.2-0.03-0.11c0.02-0.01,0.08-0.01,0.1-0.01C241.8,116.68,241.9,116.58,242.01,116.49
								c1.37,0.33,0.19,0.25-0.25,0.3c-0.02,0.04-0.06,0.08-0.07,0.12l0.02,0.01l4.85,0.06
								C245.55,116.75,244.27,116.64,242.01,116.49z"/>
							<path class="st9" d="M218.66,108.97c0.13,0.1,0.12,0.16,0.12,0.22C219.11,109.14,219.23,109.09,218.66,108.97z"/>
							<path class="st9" d="M220.53,109.81c-0.36,0.06-0.7,0.35-1.81,0.08c-0.93-0.42,0.07-0.41,0.06-0.7
								c-0.71,0.11-2.46,0.21-0.41,0.98l0.35-0.06c0.93,0.31,1.97,0.83,2.73,1.28c0.76,0.43,1.25,0.8,1.08,0.84
								C222.09,111.39,221.68,110.78,220.53,109.81z"/>
							<path class="st9" d="M231.38,113.05l4.02,0.13l-1.92-1.02l0.04,0.46C231.29,112.13,231.71,112.74,231.38,113.05z"/>
							<polygon class="st9" points="252.87,118.19 252.25,119.05 254.69,117.96 							"/>
							<polygon class="st9" points="258.09,118.51 257.84,119.28 259.25,118.92 							"/>
							<path class="st9" d="M419.56,66.29l-1.17-0.18C418.93,66.22,419.28,66.27,419.56,66.29z"/>
							<path class="st9" d="M427.34,69.42l0.34-0.28C427.23,69.18,427.03,69.27,427.34,69.42z"/>
							<path class="st9" d="M386.15,115.14c1.8,0.51,3.86,1.39,3.54,0.54l-0.64-0.79C387.88,115.19,386.95,115.22,386.15,115.14z"/>
							<path class="st9" d="M470.68,93.03c-0.26-0.02-0.52-0.04-0.79-0.06c-0.01,0.31-0.08,0.62-0.16,0.9
								C470.04,93.61,470.38,93.33,470.68,93.03z"/>
							<path class="st9" d="M466.68,90.39c0.63,0.01,1.32,0.01,2.06,0C468.12,90.36,467.43,90.36,466.68,90.39z"/>
							<path class="st9" d="M375.7,53.55l-1.51,0.53C376.23,54.59,375.44,53.93,375.7,53.55z"/>
							<path class="st9" d="M311.58,120.1c1.49,0.32,2.67,0.44,3.71,0.47C313.5,120.09,312.05,119.37,311.58,120.1z"/>
							<path class="st9" d="M425.99,58.83c-0.74-0.11-1.09-0.04-1.14,0.14C425.61,59.09,426.06,59.08,425.99,58.83z"/>
							<path class="st9" d="M319.59,120.5c-0.26-0.08-0.52-0.12-0.79-0.19c-1.08,0.16-2.17,0.3-3.5,0.26
								C316.62,120.92,318.14,121.12,319.59,120.5z"/>
							<path class="st9" d="M214.84,64.37c-0.12,0.02-0.26,0.06-0.38,0.07C214.48,64.56,214.63,64.49,214.84,64.37z"/>
							<path class="st9" d="M169.1,83.25c0.34-0.36,0.94-0.9,1.53-1.38C170.31,82.06,169.83,82.45,169.1,83.25z"/>
							<path class="st9" d="M279.07,120.26C277.96,120.25,278.89,120.35,279.07,120.26L279.07,120.26z"/>
							<path class="st9" d="M273.87,116.53c0.24-0.08,0.42-0.2,0.46-0.4C274.23,116.34,274.07,116.46,273.87,116.53z"/>
							<path class="st9" d="M330.4,114.73c0.03,0,0.06,0,0.1,0C330.16,114.58,330.22,114.61,330.4,114.73z"/>
							<path class="st9" d="M277.42,119.77c0.41,0.13,0.89,0.25,1.4,0.34C278.6,120.03,278.18,119.92,277.42,119.77z"/>
							<path class="st9" d="M277.63,120.2c-0.38-0.05-0.68-0.1-0.96-0.14C276.52,120.19,276.64,120.29,277.63,120.2z"/>
							<path class="st9" d="M280.62,120.28c-0.63,0-1.22-0.08-1.79-0.17c0.21,0.07,0.3,0.12,0.24,0.15
								C279.4,120.27,279.86,120.27,280.62,120.28z"/>
							<path class="st9" d="M299.85,42.06c-0.07-0.03-0.16-0.04-0.24-0.08C298.53,42.36,299.01,42.3,299.85,42.06z"/>
							<path class="st9" d="M413.12,101.98c-0.05,0.02-0.07,0.04-0.12,0.06c0.05,0,0.12,0,0.16,0L413.12,101.98z"/>
							<path class="st9" d="M416.86,100.65c-1.45,1.36-2.41,1.4-3.7,1.4l1.71,2.23L416.86,100.65z"/>
							<path class="st9" d="M400.54,59.89l2.37,1.55c-3.55,0.25-5.67-0.87-3.57,0.92c0.59-1.22,3.16-0.55,5.69,0.22
								c2.52,0.84,5.03,1.68,5.66,0.46l1.51,1.15c-0.48-0.2-0.61-0.08-1.08-0.28c2.85,2.42,3.11-0.96,7.25,0.95
								c1.41,0.73,2.31,1.48,1.18,1.41c1.18,0.2,2.37,0.37,3.54,0.58c0.93,0.44,0.52,0.79-0.4,0.35l5.04,1.86l-0.07,0.06
								c0.87-0.1,2.72-0.04,3.61,0.02c1.11,0.88-0.74,0-0.55,0.45l3.01,0.54c0.85,1.11-1.69,0.8-3.55-0.08
								c1.52,3.57,2.54,0.32,7.46,4.07l-2.72-0.76c1.05,2.13,3.31,2.39,5.8,4.56c-0.44-0.83-4.87-4.67-1.61-4.07
								c0.76,0.54,1.83,1.06,3.62,1.33c-0.38,0.89,1.26,1.39,3.21,2.25l-0.66,1.1c2.23,0.64,2.34-0.03,3.81,0.02
								c2.27,1.2,2.33,2.32,2.52,3.33c3.62,1.92-1.88-2.64,2.62-0.8c1.44,0.94,2.76,1.55,4.22,2.06c1.8,0.64,2.21,0.54,3.65,0.85
								c0.42,0.47,0.16,0.55-0.13,0.61c-0.3,0.05-0.64,0.07-0.63,0.29c0.57-0.09,1.21-0.14,1.92-0.15c0.23,0.15-0.2,0.28-0.41,0.34
								c0.62,0.1,1.03-0.05,1.49-0.16c0.47-0.11,0.99-0.18,2.09,0.19c1.21-0.16,1.52,0.58,1.66,1.21c0.09,0.32,0.15,0.62,0.49,0.89
								c0.35,0.27,0.99,0.51,2.41,0.8c-0.39,0.2-2.05-0.18-3.04-0.14c1.13,0.29,1.99,0.54,2.69,0.74c0.36,0.11,0.67,0.2,0.95,0.28
								c0.03,0.06,0.06,0.11,0.1,0.17c0.11,0.23,0.48,0.43,0.72,1.13c-1.34,0.1-2.56,0.17-3.66,0.19c1.52,0.07,2.5,0.33,2.78,0.81
								c0.3,0.46-0.13,1.14-0.84,1.83c1.41,0.08,2.76,0.1,3.58,0.06c-1.21,0.6-2.54,1.22-4.02,1.87c-0.82,0.01-0.68-0.48-0.51-1.08
								c-0.19,0.16-0.38,0.32-0.52,0.46c-2.08,0.09-1.71-0.78-1.56-1.57c0.69,0.07,1.45,0.14,2.24,0.2
								c0.07-0.84-0.51-1.58-1.76-2.01c0.04,0.14-0.13,0.33-0.44,0.49c-0.08-0.2-0.23-0.36-0.47-0.42c-0.27-0.07-0.14,0.2-0.24,0.56
								c-0.76-0.29-1.46-0.59-2.1-0.91l0.45,0.47c-1.33,0.06-2.45,0.05-3.34-0.02c-1.71,1.2-3.41,2.55-5.37,3.84
								c-1.97,1.31-4.28,2.55-7.4,3.6c1.34-1.4-0.05-1.74-0.25-2.97c2.04,0.86,4.79-1.7,8.12-2.28c-1.74,0.3-1.51-0.37-1.13-0.68
								c-1.85,0.88-3.71,1.74-5.57,2.59c-0.1-1.02-1.42-0.44-3.05-0.49c1.62,1.69-4.08,2.3-6.35,3.43
								c-0.29-0.62,0.13-1.42,3.09-1.92c-3.55-0.75-3.65,3.25-7.11,2.66c0.71-0.17,1.12-0.15,1.33-0.54
								c-1.55,0.94-5.74,1.34-4.89,0.56l0.71-0.16c-4.79,0.79-14.5,2.85-14.92,4.63c-0.09-0.21,0.26-2.13,0.48-2.52
								c-2.5,2.38-5.01,4.82-7.56,7.15c0.51-1.56-2.97-4.52,0.87-5.99c-1.18-0.02-2.62-0.02-4.94,0.88
								c0.81,0.08,2.29,1.76,1.24,2.07c-3.19-1.12-2.17-0.52-5.99-1.3c1.22,0.12,0.28,2.6-1.59,2.8c0.24-0.38-0.5-2.21,0.14-2.55
								l-4.27,2.91c1.09-0.57-0.08-1.92-1.2-2.39c0.54,0.36-3.98,0.57-5.18,0.93l2.02,0.26c-5.25,0.36-4.72,3.82-9.93,4.39
								c0.57-0.55,1.19-3.04-1.47-2.98c-1.06,1.28-4.69,6.12-9.23,7.53l-0.96-0.55l-3.47,1.09c2.05-1.9,7.82-6.26,10.99-8.05
								c-2.01-0.29-0.63-0.71-3.55-0.31c-1.1-0.5,1.48-1.11,2.34-1.25l-6.83,0.38c0.45,1.33-5.06,1.85-4.69,2.94
								c2.42-0.7,4.84-1.39,7.25-2.15c0.22,0.65-0.74,1.72-2.37,2.67c-1.63,0.93-3.94,1.71-6.37,1.83
								c-1.28-0.41,0.69-2.47,0.55-2.91c-0.58,0.52-4.5,1.32-4.97,1.04l1.98-0.91c-1.37-0.12-2.42,0.43-3.56,0.89
								c-1.14,0.44-2.35,0.78-4.02,0.27c-1.13,0-3.47-1.47-3.6-0.66c1.93,1.39,2.67,6.09,1.53,7.34c-0.41-0.09-6.03-0.97-7.36-1.69
								c-1.93-1.09,2.59-3.02,0.94-3.96c-0.04,0.37-1.03,0.88-1.45,1.05c-1.2-0.25,0.41-1.16-2.13-0.85
								c-0.34,1.39-5.2,0.18-1.14,1.22c-2.48,0.53-2.67-0.13-5.61,0.1c0.98,0.83-2.49,3.16-5,3.61c0.13-0.35-0.45-0.78-0.73-0.98
								c-5.16,0.04-7.94-0.39-12.74-0.36c-0.45-0.32-2.77-0.69-1.79-1.29c-0.68,0.25-1.31,0.72-2.79,0.78
								c-2.87-1.14,3.29-0.23,1.09-1.62c-0.17,0.79-3.8,1.15-5.91,1.68c0.65,1.21,4.87,0.16,6.97-0.37
								c0.04,1.67-3.62,3.54-8.66,4.34c-4.01,0.39-1.74-1.1-2.43-0.87c-3.76-0.18-5.37,0.55-6.82,1.16
								c-1.45,0.6-2.75,1.14-5.87,0.41c-2.46-1.15-0.06-2.14-0.59-2.93c3.26-0.28,4.98,0.8,7.19,0.77l-2.71-0.53
								c1.04-0.35,3.22-0.6,4.4-0.28c-1.03-0.51-4.2-0.51-7.83-0.68c-3.63-0.15-7.72-0.31-10.59-0.84c-1.04,0.34-2.83,0.6-2.01,1.08
								c0.61-0.01,1.22-0.04,1.84-0.07c0.82,0.46-0.05,0.73-0.84,0.95c-0.79,0.21-1.51,0.35-0.35,0.62
								c-2.48,0.47-5.3,1.27-8.75,0.59l-0.58-1.26c0.05,0.36,2.22,0.86,3.22,0.54c-1.48,0.46-5.21-1.95-6.89-0.44l2.38,0.98
								c-1.26,0.23-2.67,0.65-4.16,0.9c-1.48,0.23-3.04,0.34-4.56,0.02c1.31,1.32,0.72-0.08,2.8,1.51
								c-0.88-0.97,1.08-0.76,2.91-0.64c1.83,0.11,3.51,0.2,2.05-0.81c2.15,1.77,3.85,0.91,6.72,2.48c-0.07-0.41-1-0.83,1.58-0.49
								c0.12-0.11,0.41-0.25,0.59-0.32c0.08,0.02,0.11,0.02,0.17,0.04c-0.05-0.02-0.09-0.04-0.14-0.06
								c0.12-0.05,0.13-0.07-0.05-0.02c-0.61-0.21-1.1-0.45-1.29-0.69c0.67-0.43,2.03-0.58,3.39-0.67c1.37-0.09,2.75-0.19,3.45-0.4
								c1.53,0.24-0.66,0.44,0.16,0.9l2.1-0.65c0.17,0.9,4.04,1.62,0.39,2.03l3.26,0.14c1.91,0.55,4.55,0.87,6.19,0.5
								c1.54,0.21,3.9-0.96,2.55-0.27l5.12-0.52l0.05,0.22c5.06,0.2,10.37-1.54,16.17,0.01c1.7-0.24,3.44-0.56,6.29-0.42l0.58,0.76
								c2.17-0.35,6.59,0.54,7.49-0.31c2.46,2.01,10.62-0.13,14.47,0.02l0.08-1.02c2.64-0.15,5.15-0.63,8.38-1.29l-0.27-0.88
								c2.75-0.92,7.28,0.02,11.72-0.51c-0.27,0.37-1.41,0.39-2.22,0.26c5.53,1.54,11.04-2.63,16.01-1.72
								c1.16-0.46,2.04-0.45,2.9-0.34c-0.11,0.02-0.21,0.05-0.29,0.09c0.12-0.01,0.31-0.03,0.49-0.05c0.55,0.08,1.11,0.19,1.72,0.25
								c-0.53-0.15-1.03-0.26-1.46-0.29c0.92-0.14,2.3-0.44,3.65-0.84l0.71,0.88c0.11-0.02,0.2-0.04,0.31-0.07
								c1.39,0.17,1.02-0.6,0.21-1.22c0.67-0.25,1.27-0.52,1.73-0.82c1.31,1.4,3.52-0.99,5.24,0.41c0.81-0.94,6.78-1.63,7.25-3.42
								c0.08,0.21,0.5,0.26-0.24,0.38c1.55-0.03,3.1-0.11,4.38-0.8l0.84,1.1l3.04-2.17c2.13,0.4,3.05,0.69,1.2,1.95
								c4.58-2.25,3.82-1.23,7.66-3.38l-0.06,0.81c1.46-0.29,3.6-1.76,4.6-1.3c3.56,0.87,16.18-2.99,24.81-3.62
								c-2.15-1.88,4.11,0.09,4.02-1.74c0.61,0.42,1.85,0.45,0.61,1.23c4.11-1.58,6.6-0.73,9.14-2.98c0.63,0.41-0.7,1.02-0.19,1.22
								c0.08-0.05,0.19-0.12,0.33-0.21c0.07-0.04,0.14-0.08,0.22-0.13c0.07-0.04,0.15-0.08,0.31-0.14c0.55-0.21,1.12-0.37,1.55-0.31
								c0.42,0.06,0.22,0.23-0.24,0.46c-0.23,0.11-0.52,0.24-0.82,0.38l-0.46,0.2c-0.11,0.06-0.17,0.1-0.26,0.16
								c0.4-0.12,0.77-0.23,1.13-0.34c0.4-0.13,0.78-0.26,1.14-0.37c0.71-0.24,1.29-0.49,1.79-0.73c0.99-0.47,1.56-0.92,1.86-1.34
								c0.6-0.83,0.14-1.56-0.34-2.25c1.72-0.1,3.04-0.3,3.95-0.63c0.91-0.33,1.4-0.8,1.61-1.4c1.63,0.05,4.26-0.19,0.94,1.03
								c1.05-0.28,4.47-1.13,7.39-2.05c2.93-0.91,5.27-1.83,3.82-2.02c0.34-0.03,0.7-0.1,1.05-0.19c-0.18-0.13-0.52-0.3-0.86-0.46
								c-0.69-0.33-1.5-0.66-1.89-0.79c-3.72-2.05-3.89-2.27-7.94-4.3l0.71,0.6c-2.05-0.26-2.87-0.59-3.67-1.11
								c-0.78-0.5-1.57-1.2-3.15-1.93l0.27-0.03c-1.37-1.03-2.35-1.67-3.05-2.07c-0.7-0.4-1.13-0.56-1.55-0.71
								c-0.83-0.3-1.6-0.64-4.63-2.91l-0.12,1c-1.43,1.61-4.48-3.44-8.11-4.27l0.95,1.05c-2.09-0.2-3.83-4.89-5.54-5.98
								c-0.32-0.35,0.74,0.03,1.35,0.17c-4.24-3.33-1.14,0.85-4.79-0.53c-0.38-0.92,1.55-1.18-0.79-2.41
								c-0.97-1.07-7.91-0.93-10.7-3.51c0.53,0.79,1.05,1.57-0.77,1.24c-2.62-0.88-6.19-4.73-9.12-4.12
								c-0.28-0.25-0.36-0.43-0.32-0.55c-2.15-0.33-6.74-1.69-8.24-1.29c-0.35-1.89-3.6-2.64-6.6-3.26
								c-2.99-0.68-5.82-0.97-5.32-2.44l-6.29-1.78l0.25-0.25c-3.94-1.43-5.56-1.16-7.16-0.89c-0.86-0.48-0.11-0.55,0.01-0.68
								c-1.41-0.62-2.53-0.99-3.48-1.29c-0.95-0.3-1.74-0.49-2.51-0.61c-1.54-0.25-3.04-0.2-5.69-0.1l-0.27-1.09
								c-0.74,0.11-2.78-0.82-5.41-1.81c-2.64-0.94-5.91-1.79-8.96-1.84c0.08-0.1,0.24-0.26,0.73-0.3
								c-1.71-0.05-3.52-0.45-5.33-0.96c-1.8-0.52-3.61-1.17-5.32-1.58c-3.41-0.9-6.37-1.42-7.84,0.19l-4.51,0.22
								c5.63,1.13-1.05,1.43,1.2,2.37c-1.12-0.05-2.51-0.57-3.3-0.96c-0.78-0.4-0.94-0.79,0.45-0.75c0.14,0.07,0.27,0.15,0.41,0.24
								c1.25-1.8-7.01-1.36-6.73-2.62c-2.82-0.24-5.62-0.58-8.4-0.91c-2.79-0.21-5.56-0.45-8.31-0.7
								c-5.5-0.62-10.94-0.72-16.28-0.72l1.26,1.45l-3.7-0.05c-0.98-0.33-1.35-1.13,1.31-1.1c-1.43-0.87-4.42,0.87-4.47,1.19
								c-5.21-0.27,1.94-1.83,0.35-1.77l-2.16,0.25l0.5,0.14c-1.72,0.71-1.84,1.35-5.02,1.48c-2.03-0.16-1.1-0.83-1.9-0.84
								c0-0.1-0.28-0.14-1.22,0.04c-1.57,0.02-3.12,0.25-4.68,0.36l1.98,0.93c-2,0.81-4.37,0.45-2.09,1.5
								c-0.84-0.41-2.34-0.53-4.16-0.5c-0.91,0.02-1.9,0.08-2.92,0.16c-0.51,0.05-1.03,0.1-1.55,0.15l-1.56,0.25
								c-4.15,0.7-8.12,1.54-9.14,1.4c-2.7,1.35-5.46,2.03-8.95,2.68c0.92,0.04,1.72,1.19-1.28,1.7c0.11-0.71-0.19-1.06-0.75-1.21
								c-0.56-0.16-1.38-0.08-2.3,0.08c-1.83,0.3-4.08,0.82-5.54,0.22c1.24,0.32-0.84,0.98-2.75,1.66
								c-1.91,0.67-3.59,1.53-1.68,1.83c-2.48,0.59-0.44-0.91-2.48-0.9c-1.37,0.73-2.86,1.31-4.44,1.82
								c-0.79,0.26-1.61,0.49-2.43,0.73c-0.82,0.26-1.66,0.52-2.5,0.78c-3.39,1.04-7.04,1.99-10.41,3.73
								c0.03,0.37,1.4,0.36,0.13,1.49l-4.37-0.01c-1.31,0.75-0.39,2.41-3.36,2.5c0.47,0.1,1.18,0.25,0.33,0.79
								c-1.75,0.62-3.47,1.31-5.18,2.05c-1.68,0.8-3.34,1.68-4.99,2.57l-2.47,1.37l-2.4,1.5c-1.59,1.01-3.21,2-4.78,3.05
								c-6.33,4.18-12.46,8.55-19.35,12.1c2.02-0.77,1,0.15-0.19,1.15c0.89-0.51,0.54,0.68,1,0.92c-1.9,0.99-3.76,2.04-5.64,3.12
								c0.02,0.89-1.22,2.03-2.39,3.18c-1.17,1.14-2.29,2.27-2.06,2.96c0.41-0.54,0.83-1.07,1.26-1.58
								c-0.43,1.46,0.83,1.39,2.3,1.19c1.46-0.21,3.17-0.5,3.68,0.33c0.24-0.79,0.81-1.4,1.57-1.93c0.76-0.52,1.72-0.95,2.69-1.44
								c1.93-1,4.05-2.06,5.1-4.51c1.06-0.33-0.31,1.03,0.4,1.04c0.42-1.38,1.48-2.38,3.82-3.69l-0.12,0.35
								c1.45-1.18,2.8-2.05,4.04-2.87c1.24-0.81,2.41-1.52,3.66-2.16c1.24-0.65,2.5-1.31,3.92-2.05c1.41-0.75,3.04-1.48,4.89-2.45
								l-1.02-0.5c1.61-0.82,2.09-0.75,2.93-0.98c1.06-2.31-4.39,2.53-3.58,0.2c0.76,0.11,1.83-0.25,3.03-0.82
								c1.21-0.57,2.61-1.28,3.97-2c1.37-0.72,2.71-1.43,3.87-1.86c1.18-0.4,2.16-0.56,2.77-0.24c2.49-1.21-1.22-0.62,1.28-1.83
								l0.92,0.21l0.3-1c1.69-0.69,2.83-0.42,3.1,0.02c-0.43,0.11-1.06,0.67-1.47,0.91c1.19-0.23,2.68-0.92,3.97-1.61
								c1.29-0.69,2.38-1.36,2.8-1.42l-2.58,0.73c1.67-0.87,3.47-1.75,5.34-2.56c1.9-0.74,3.85-1.5,5.79-2.25
								c0.97-0.38,1.93-0.77,2.89-1.14c0.97-0.34,1.93-0.7,2.87-1.06c1.88-0.73,3.67-1.51,5.32-2.37l-0.66-0.25
								c1.26-0.66,2.19-0.98,2.95-1.18c0.75-0.21,1.33-0.29,1.93-0.36c1.2-0.15,2.47-0.26,5.39-1.26l-0.19,0.16
								c1.07-0.79,2.63-1.37,4.29-1.68c-1.39,0.85,3.08,0.36,1.23,1.36c5.72-2.19,2.76-1.33,6.36-3.84
								c0.35,0.17,0.71,0.37,1.06,0.56c1.23-0.89,1.28-1.26,4.3-1.96c-2.39,1.05,2.13,0.78-0.52,2.09c3.32,0.27,5.59-0.56,7.48-1.16
								c1.9-0.54,3.4-0.94,5,0.07c2.71-2.38-5.69-0.49-4.1-1.11c-1.48-0.5,2.24-1.8,4.3-1.84c1.04-0.1,1.99,0.45,3.32,0.95
								c1.33,0.5,3.03,0.89,5.61,0.75c-0.52,0.02-0.54,0.18-1.05,0.2c1.97,0.4,3.74-0.95,6.17-0.25c1.26-1.32,3.08-0.12,3.39-1.73
								l-4.74,0.67c1.34-0.29,2.61-0.94,4.13-1.44c0.76-0.24,1.57-0.48,2.48-0.55c0.91-0.06,1.91-0.02,3.04,0.19
								c-0.34,0.32-1.66,0.76-2.56,1c1.32,0.45,2.5-0.33,3.87,0.13c-0.18,0.79-1.62,0.89-3.38,0.95c-0.88,0.01-1.83,0.07-2.75,0.21
								c-0.91,0.14-1.78,0.34-2.48,0.69c1.41,0.57,5.39-1.47,4.01,0.31c2.02-2.2,5.09,0.23,8.58-1.48l-0.23,0.95
								c0.55-0.15,1.7-0.61,2.73-0.6l-1.85,1.25c1.41-0.54,2.78-0.33,4.12-0.04c1.34,0.35,2.66,0.76,4.03,0.53
								c-5.67-0.22-1.24-1.2-3.64-2c7.09-0.96,3.97,2.66,11.81,2.54c-1.06,0.09-3.95-0.74-2.26-1.11c1.48,0.27,3.44,0.68,4.31,1.28
								c5.19,0.31-0.72-1.05,1.53-1.42c1.68,1.32,2.59-0.22,4.91-0.37l-0.07,0.96c5.86,1.19,1.78-1.85,7.05-0.59l-2.41,1.11
								l2.82-0.08l-0.7,1.03c3.11-0.44,4.02-0.03,6.92,0.7c-0.59-0.78,0.63-1.68,3.26-1.31c1.7,0.83-1.14,0.76,2.59,1.18
								c-0.94,0.47-1.96,1.08-3.44-0.04c-0.21,0.29-0.91,0.48-1.13,0.76c1.81,0.94,4.77,0.87,6.11,1.06
								c-0.51-0.11-1.11-0.26-1.41-0.44l2.79-0.26c0.93-0.07,1.85-0.09,2.78-0.13c0.77,0.53,0.05,0.68-0.65,0.82
								c1.09,0.12,1.92-0.17,3.52,0.07c-0.56,0.69-0.62,1.5-2.91,1.41l5.21,0.17c0.27,0.4,2.4,1.44,1.69,1.59
								c1.35,0.51,3.13,0.48,5.04,0.5c1.91,0,3.9,0.24,5.67,0.98c0.23-0.1,0.64-0.14,1.45-0.05c3.42,1.06,6.21,2.76,10.59,2.78
								l1.9,2.06c3.25,0.67-2.61-2.66,2.81-1.54c3.87,0.73,1.05,1.58,2.24,2.36c2.05-0.11,5.73-0.48,8.81,1.67
								C402.46,60.59,401.63,60.12,400.54,59.89z M439.05,73.82c-0.82-0.12-2.52-0.15-2.84-0.9
								C437.48,72.25,437.93,73.01,439.05,73.82z M463.99,92.94c0.26-0.4,0.92-0.41,1.99-0.33
								C465.49,92.83,464.8,92.99,463.99,92.94z M291.25,119.88c0.03-0.01,0.06-0.03,0.09-0.04
								C293.13,120.26,292.49,120.1,291.25,119.88z M287.51,119.34c-0.38,0.12-0.36,0.26-0.2,0.4c0.27-0.24,1.11-0.23,2.07-0.13
								C289.12,119.35,288.64,119.16,287.51,119.34z M287.73,36.28l0.75,0.2C286.85,36.87,287.29,36.59,287.73,36.28z"/>
							<path class="st9" d="M467.19,90.68c0.35,0.07,0.65,0.17,0.95,0.28C468.09,90.81,467.79,90.69,467.19,90.68z"/>
							<path class="st9" d="M375.98,53.45l-0.12-0.04c-0.08,0.04-0.13,0.09-0.16,0.14L375.98,53.45z"/>
							<path class="st9" d="M344.96,110.16c0.77,0.09,1.2,0.25,1.5,0.41C346.48,110.34,346.12,110.16,344.96,110.16z"/>
							<path class="st9" d="M267.58,120.05l2.42-0.12c-1.16-0.02-1.57-0.25-2.14-0.44C267.89,119.73,268.33,120.08,267.58,120.05z"
								/>
							<path class="st9" d="M247.37,112.35c-0.36,0.08-0.74-0.07-1.09,0.01l0.05,0.46C247.81,112.95,248.87,112.7,247.37,112.35z"/>
							<path class="st9" d="M265.57,116.73c-0.13-0.83-1.65-0.67-3.33-0.66c0.1,0.01,0.2,0.01,0.3,0.02
								C261.96,117.18,263.77,116.95,265.57,116.73z"/>
							<path class="st9" d="M261.85,116.06c-0.52,0-1.04-0.03-1.55-0.11C260.08,116.39,260.93,116.1,261.85,116.06z"/>
							<path class="st9" d="M282.74,119.73c-0.79-0.23-0.54,1.02-0.98,0.68C280.83,121.41,287.13,119.32,282.74,119.73z"/>
							<polygon class="st9" points="264.41,113.95 264.94,115 265.92,114.26 							"/>
							<path class="st9" d="M277.53,115.46l-2.65-0.43c0.03,0.17-0.31,0.25-0.73,0.3C275.78,115.46,277.57,115.76,277.53,115.46z"/>
							<path class="st9" d="M274.14,115.33c-0.85-0.07-1.67-0.09-2.16,0.05C272.45,115.39,273.45,115.42,274.14,115.33z"/>
							<polygon class="st9" points="268.07,113.89 268.84,114.14 270.71,114.32 							"/>
							<path class="st9" d="M306.21,116.32c0.97-0.08,1.94-0.18,2.91-0.29c0.29-0.35-0.5-0.54-1.58-0.4
								C306.85,115.86,305.77,115.99,306.21,116.32z"/>
							<path class="st9" d="M297.44,113.51c0.78,0.21,0.83,0.44,1.27,0.77l0.1-1.24L297.44,113.51z"/>
							<path class="st9" d="M305.9,113.29c0.29-0.34,4.2-0.96,0.53-0.91C306.14,112.72,303.23,112.98,305.9,113.29z"/>
							<polygon class="st9" points="349.66,113.25 348.93,113.32 349.18,115.35 							"/>
							<path class="st9" d="M387.43,104.49c-3.45-0.04-0.64,1.35-3.79,1.15c-0.74,0.58,2.57,0.16,1.81,0.68
								C387.43,105.55,388.55,105.7,387.43,104.49z"/>
							<path class="st9" d="M385.45,106.33c-0.32,0.12-0.65,0.27-1.01,0.45C385.02,106.57,385.29,106.44,385.45,106.33z"/>
							<polygon class="st9" points="162.14,88.06 160.19,89.38 161.74,88.82 							"/>
							<path class="st9" d="M160.08,92.27l-1.33-0.48c-0.04,0.62-0.07,1.22-0.13,1.89C158.99,93.16,159.58,92.38,160.08,92.27z"/>
							<path class="st9" d="M443.54,78.7l0.28-0.21c-0.17-0.45-0.62-0.69-1.53-1.18L443.54,78.7z"/>
							<polygon class="st9" points="416.52,66.54 416.99,66.74 416.5,65.31 							"/>
							<path class="st9" d="M392.54,60.05c0.95,0.34,2.16,0.45,3.11,0.79C393.49,60.4,392.7,58.57,392.54,60.05z"/>
						</g>
					</g>
				</g>
			</g>
		</g>
		<g>
			<g>
				<g>
					<g>
						<g>
							<path class="st10" d="M355.74,75.5c0.29,0.14,0.33-0.29,0.4-0.34C355.6,75.07,355.71,75.61,355.74,75.5z"/>
							<polygon class="st10" points="350.48,74.67 350.63,74.54 349.77,74.68 							"/>
							<path class="st10" d="M345.86,73.18c0.23,0.82,1.74,0.34,2.48,0.88l0.09,0.2l0.55-0.42
								C347.95,73.54,346.51,73.58,345.86,73.18z"/>
							<path class="st10" d="M343.77,70.99c0.08,0.31-0.61,0.08,0.56,0.25c-0.05-0.05-0.06-0.07-0.09-0.1
								C344.15,71.12,344.01,71.08,343.77,70.99z"/>
							<path class="st10" d="M344.25,71.14C344.75,71.26,343.99,70.83,344.25,71.14L344.25,71.14z"/>
							<path class="st10" d="M341.91,70.65l0.72-0.06c-0.09-0.2-0.67-0.4-0.42-0.45C341.5,70.08,341.59,70.28,341.91,70.65z"/>
							<path class="st10" d="M341.16,70.98l0.37-0.01C341.48,70.89,341.4,70.84,341.16,70.98z"/>
							<path class="st10" d="M342.3,70.96l-0.78,0.01c0.07,0.14,0.02,0.36,0.35,0.02C341.76,71.18,341.95,71.02,342.3,70.96z"/>
							<path class="st10" d="M342.68,71.18c0.33,0.25,0.77,0.48,0.05,0.53C344,71.97,343.96,71.44,342.68,71.18z"/>
							<path class="st10" d="M345.41,73.82l0.42,0.34l0.49-0.11C346.08,74.1,345.44,73.6,345.41,73.82z"/>
							<path class="st10" d="M337.88,69.28c-0.08,0.14,0.13,0.44,0.14,0.64l0.53-0.06C338.32,69.71,337.86,69.51,337.88,69.28z"/>
							<path class="st10" d="M338.01,69.92l-0.79,0.09C337.87,70.19,338.02,70.1,338.01,69.92z"/>
							<polygon class="st10" points="340.84,71.71 342.16,71.52 340.61,71.66 							"/>
							<polygon class="st10" points="335.07,68.64 335.56,68.39 334.71,68.75 							"/>
							<path class="st10" d="M333.2,68.29c0.37-0.22-0.33-0.58,0.03-0.68c-0.52-0.05-1,0.08-1.43,0.24
								C332.24,67.79,332.67,67.94,333.2,68.29z"/>
							<path class="st10" d="M331.08,68.06c0.22-0.03,0.46-0.12,0.72-0.21C331.56,67.88,331.33,67.94,331.08,68.06z"/>
							<path class="st10" d="M335.99,69.67c-0.04-0.1-0.09-0.36-0.48-0.55l0.2,0.48C335.79,69.62,335.89,69.64,335.99,69.67z"/>
							<path class="st10" d="M335.71,69.61l-0.01-0.02c-0.31-0.08-0.52-0.14-0.62-0.16C335.17,69.46,335.36,69.51,335.71,69.61z"/>
							<path class="st10" d="M336.07,69.69c-0.03-0.01-0.05-0.01-0.07-0.02C336.01,69.72,336.03,69.73,336.07,69.69z"/>
							<path class="st10" d="M339.04,70.86c-0.49,0.14-1.43,0.19-0.66,0.73C338.76,71.38,338.31,71.07,339.04,70.86z"/>
							<path class="st10" d="M336.31,70.29l0.75,0.27c0.01-0.11-0.09-0.3,0.15-0.37L336.31,70.29z"/>
							<polygon class="st10" points="335.9,70.34 336.31,70.29 336.03,70.19 							"/>
							<path class="st10" d="M332.35,68.7c-0.37,0.1-0.74,0.06-1.17,0.02c0.43,0.15,0.89,0.28,1.32,0.38
								C332.59,68.99,332.83,68.79,332.35,68.7z"/>
							<path class="st10" d="M333.98,69.18c-0.03,0-0.06,0.01-0.08,0.01C333.94,69.24,333.97,69.26,333.98,69.18z"/>
							<polygon class="st10" points="327.06,68.04 327.11,68.12 327.14,68.05 							"/>
							<path class="st10" d="M332.56,69.2c0.32,0.15,0.54,0.1,0.75,0.01c-0.26-0.01-0.53-0.04-0.81-0.1
								C332.46,69.16,332.45,69.2,332.56,69.2z"/>
							<path class="st10" d="M329.89,68.07c0.16,0.12,0.35,0.22,0.54,0.33C330.29,68.24,329.97,67.97,329.89,68.07z"/>
							<path class="st10" d="M333.81,69.05c0.02,0,0.03-0.01,0.05-0.01C333.77,68.93,333.77,68.97,333.81,69.05z"/>
							<path class="st10" d="M333.81,69.05c-0.18,0.02-0.34,0.1-0.5,0.16c0.21,0.01,0.41,0.01,0.58-0.02
								C333.86,69.15,333.83,69.1,333.81,69.05z"/>
							<path class="st10" d="M325.39,70.54c0.12-0.38,1.05-0.6,1.74-0.05c0.79-0.17,0.52-1.53-0.02-2.36
								c-0.05,0.17-0.08,0.32-0.89,0.43c0.24,0.26,1.63,0.78,0.92,1.03c-1.05,0.03-0.81-0.28-1.27-0.57c0.34,0.56-1.4,0.5-1.29,1.25
								l0.92-0.11C325.51,70.27,325.16,70.4,325.39,70.54z"/>
							<path class="st10" d="M328.58,68.41l0.33,0c-0.35-0.13-0.58-0.33-1.01-0.71c-0.56,0.1-0.7,0.23-0.75,0.35l1.56,0.31
								L328.58,68.41z"/>
							<path class="st10" d="M330.34,68.65c-0.33,0.38-1.12,0.44-0.74,0.97c0.93,0.12,0.72-0.25,1.31-0.34
								c-1.52-0.14,0.48-0.16-0.57-0.59c0.31-0.02,0.58,0,0.84,0.02c-0.26-0.1-0.51-0.2-0.75-0.32l0.03,0.03l0.01,0l0,0.01
								c0.06,0.06,0.07,0.1,0,0.06c-0.01,0-0.02,0-0.03,0C330.42,68.55,330.38,68.6,330.34,68.65c-0.42-0.16-0.05-0.12,0.1-0.15
								c0.01-0.02,0.02-0.04,0.03-0.06l0-0.01l-1.55-0.02C329.22,68.52,329.62,68.58,330.34,68.65z"/>
							<path class="st10" d="M337.38,72.33c-0.04-0.05-0.03-0.08-0.02-0.11C337.25,72.25,337.2,72.28,337.38,72.33z"/>
							<path class="st10" d="M336.83,71.94c0.12-0.03,0.25-0.18,0.59-0.06c0.27,0.19-0.05,0.2-0.06,0.34
								c0.24-0.06,0.81-0.14,0.19-0.49l-0.12,0.03c-0.56-0.28-1.21-0.97-1.1-1C336.42,71.18,336.52,71.48,336.83,71.94z"/>
							<path class="st10" d="M333.55,70.36l-1.28-0.07l0.56,0.5l0.01-0.23C333.52,70.81,333.43,70.51,333.55,70.36z"/>
							<polygon class="st10" points="326.95,67.8 327.19,67.38 326.36,67.89 							"/>
							<polygon class="st10" points="325.31,67.58 325.43,67.2 324.96,67.37 							"/>
							<path class="st10" d="M233.65,76.63l-0.34,0.18C233.48,76.74,233.58,76.68,233.65,76.63z"/>
							<path class="st10" d="M236.27,76.15l0.03-0.2C236.2,76.08,236.16,76.17,236.27,76.15z"/>
							<path class="st10" d="M284.79,65.62c-0.56-0.35-1.19-0.9-1.1-0.46l0.18,0.43C284.25,65.5,284.54,65.54,284.79,65.62z"/>
							<path class="st10" d="M257.51,70.49c0.06,0.04,0.11,0.07,0.17,0.11c0.11-0.16,0.21-0.32,0.31-0.46
								C257.84,70.25,257.68,70.37,257.51,70.49z"/>
							<path class="st10" d="M257.36,72.32l-0.74-0.19C256.79,72.21,257.03,72.27,257.36,72.32z"/>
							<path class="st10" d="M219.53,80.06l-0.32,0.53C219.86,80.43,219.52,80.28,219.53,80.06z"/>
							<path class="st10" d="M308.43,65.98c-0.46-0.2-0.83-0.3-1.16-0.35C307.82,65.92,308.26,66.33,308.43,65.98z"/>
							<path class="st10" d="M233.82,71.91c-0.21,0.12-0.29,0.22-0.26,0.32C233.77,72.11,233.89,72,233.82,71.91z"/>
							<path class="st10" d="M305.92,65.55c0.08,0.05,0.16,0.07,0.24,0.11c0.35-0.07,0.7-0.09,1.11-0.03
								C306.86,65.42,306.39,65.26,305.92,65.55z"/>
							<path class="st10" d="M168.74,94.13c-0.04-0.01-0.09,0-0.13-0.01C168.62,94.18,168.67,94.17,168.74,94.13z"/>
							<path class="st10" d="M152.73,95.27c0.13-0.08,0.37-0.17,0.58-0.26C153.2,95.02,153.02,95.09,152.73,95.27z"/>
							<path class="st10" d="M318.71,66.54C319.07,66.55,318.77,66.49,318.71,66.54L318.71,66.54z"/>
							<path class="st10" d="M320.2,68.44c-0.08,0.04-0.14,0.09-0.16,0.19C320.08,68.53,320.14,68.47,320.2,68.44z"/>
							<path class="st10" d="M302.33,68.14l-0.03,0C302.4,68.22,302.38,68.21,302.33,68.14z"/>
							<path class="st10" d="M319.22,66.79c-0.12-0.07-0.27-0.13-0.43-0.18C318.85,66.65,318.98,66.71,319.22,66.79z"/>
							<path class="st10" d="M319.17,66.58c0.12,0.03,0.21,0.05,0.3,0.08C319.52,66.59,319.49,66.54,319.17,66.58z"/>
							<path class="st10" d="M318.22,66.5c0.2,0.02,0.38,0.06,0.56,0.11c-0.07-0.04-0.09-0.06-0.07-0.08
								C318.61,66.53,318.46,66.52,318.22,66.5z"/>
							<path class="st10" d="M195.41,84.62c-0.03-0.01-0.05-0.01-0.08-0.02C195.04,84.87,195.18,84.8,195.41,84.62z"/>
							<path class="st10" d="M276.01,70.6c0.02-0.01,0.02-0.02,0.04-0.02c-0.02,0-0.04-0.01-0.05-0.01L276.01,70.6z"/>
							<path class="st10" d="M274.8,71.01c0.49-0.57,0.79-0.53,1.2-0.44l-0.5-1.22L274.8,71.01z"/>
							<path class="st10" d="M227.43,78l0.93,0.2c-0.9,0.84-1.68,0.78-0.77,1.15c-0.16-1.35,3.27-0.84,3.12-2.18l0.62,0.17
								c-0.16,0.02-0.17,0.1-0.34,0.12c1.22,0.43,0.62-1.12,2.07-1.2c0.51,0.01,0.89,0.14,0.59,0.36l1.03-0.54
								c0.32-0.04,0.29,0.21-0.03,0.25l1.65-0.43l-0.01,0.04c0.2-0.26,0.68-0.68,0.92-0.87c0.46,0.11-0.19,0.18-0.05,0.33l0.87-0.5
								c0.44,0.27-0.27,0.76-0.92,0.83c1.11,1.17,0.71-0.5,2.72-0.03l-0.85,0.32c0.7,0.66,1.33,0.27,2.4,0.58
								c-0.28-0.21-2.19-0.86-1.24-1.36c0.3,0.05,0.68,0.04,1.18-0.32c0.09,0.47,0.6,0.27,1.26,0.13l0.06,0.64
								c0.69-0.3,0.58-0.62,0.95-0.97c0.81-0.07,1.06,0.39,1.31,0.77c1.3-0.12-1.01-0.63,0.48-1.01c1.1,0.05,1.81-0.31,3.04-0.88
								c0.78,0.11-0.07,0.41,0.22,0.55l0.59-0.6c0.16-0.01,0.14,0.15,0.12,0.23c0.53-0.28-0.05-0.64,0.81-0.94
								c0.14-0.73,1.96,0.75,2.93-0.2c0.29,0.14-0.08,0.41,0.04,0.64c1.42-0.73,1.22-0.58,2.36-1.43l1.1,0.29
								c-0.83-0.38,0.08-1.07,0.89-1.64c-0.3-0.2-0.56-0.37-0.73-0.45l1.34-0.51c0.18,0.08,0.07,0.32-0.13,0.61
								c0.09-0.06,0.17-0.13,0.23-0.18c0.52,0.17,0.31,0.57,0,0.97l-0.55-0.33c-0.29,0.43-0.56,0.89-0.44,1.26
								c0.08-0.08,0.24-0.17,0.43-0.23c-0.08,0.12-0.12,0.22-0.07,0.27c0.06,0.06,0.18-0.1,0.39-0.29l0.4,0.67l0.04-0.29l1.85,0.22
								c1.2-0.86,2.2-2.09,4.23-2.57c-0.46,0.57-0.02,0.86,0.02,1.48c-0.63-0.6-1.56,0.43-2.63,0.44c0.56,0,0.47,0.31,0.34,0.43
								c0.61-0.28,1.21-0.55,1.83-0.81c0.01,0.51,0.44,0.34,0.96,0.5c-0.48-0.96,1.34-0.8,2.08-1.18c0.08,0.33-0.07,0.69-1.02,0.7
								c1.11,0.65,1.23-1.3,2.31-0.76c-0.23,0.03-0.36-0.01-0.43,0.17c0.51-0.35,1.84-0.24,1.56,0.08l-0.23,0.03
								c0.77-0.01,1.93-0.13,2.92-0.33c0.99-0.19,1.81-0.48,1.89-0.92c0.02,0.11-0.12,1.04-0.2,1.21l2.53-3.04
								c-0.19,0.75,0.85,2.42-0.39,2.92c0.37,0.08,0.83,0.17,1.58-0.14c-0.25-0.09-0.69-1.01-0.35-1.1c0.98,0.75,0.68,0.39,1.86,1
								c-0.38-0.13-0.03-1.3,0.56-1.31c-0.08,0.18,0.11,1.13-0.1,1.26c0.47-0.41,0.93-0.82,1.4-1.2c-0.36,0.22-0.02,0.95,0.33,1.26
								c-0.16-0.21,1.27-0.03,1.65-0.15l-0.63-0.24c1.66,0.11,1.57-1.64,3.22-1.64c-0.19,0.24-0.44,1.45,0.4,1.56
								c0.36-0.59,1.61-2.83,3.07-3.33l0.29,0.33l1.12-0.38c-0.69,0.85-2.61,2.73-3.65,3.49c0.63,0.24,0.18,0.38,1.11,0.32
								c0.33,0.3-0.49,0.49-0.76,0.52l2.15,0.13c-0.11-0.67,1.63-0.68,1.54-1.24c-0.78,0.24-1.55,0.45-2.33,0.72
								c-0.11-0.68,1.31-1.94,2.85-1.82c0.39,0.27-0.28,1.2-0.24,1.42c0.19-0.23,1.45-0.45,1.59-0.28l-0.64,0.36
								c0.85,0.25,1.38-0.9,2.41-0.26c0.35,0.04,1.05,0.86,1.11,0.46c-0.57-0.76-0.68-3.14-0.29-3.71c0.13,0.05,1.87,0.73,2.27,1.1
								c0.58,0.6-0.89,1.44-0.4,1.95c0.02-0.18,0.35-0.41,0.48-0.48c0.37,0.17-0.16,0.56,0.64,0.51c0.15-0.68,1.64,0.11,0.39-0.56
								c0.79-0.17,0.84,0.17,1.76,0.17c-0.28-0.45,0.87-1.47,1.68-1.64c-0.05,0.17,0.12,0.4,0.2,0.51c1.62,0.12,2.48,0.45,3.99,0.51
								c0.13,0.17,0.85,0.43,0.52,0.7c0.22-0.1,0.44-0.32,0.9-0.3c0.86,0.65-1.04,0.02-0.4,0.77c0.08-0.39,1.23-0.46,1.91-0.66
								c-0.16-0.63-1.52-0.23-2.2-0.03c0.04-0.84,1.25-1.64,2.87-1.91c1.28-0.12,0.51,0.58,0.74,0.48c2.35,0.32,2.14-1.32,4.07-0.57
								c0.73,0.61-0.06,1.06,0.07,1.47c-1.04,0.13-1.54-0.45-2.24-0.48l0.83,0.32c-0.34,0.15-1.04,0.24-1.4,0.06
								c0.31,0.26,1.3,0.36,2.44,0.46c1.14,0.12,2.42,0.31,3.3,0.63c0.34-0.14,0.92-0.26,0.68-0.51l-0.58,0.01
								c-0.48-0.49,1.15-0.47,0.44-0.76c0.81-0.21,1.74-0.59,2.8-0.22l0.13,0.63c0-0.18-0.67-0.45-1-0.3
								c0.49-0.22,1.56,1.02,2.16,0.28l-0.71-0.51c0.82-0.21,1.88-0.76,2.81-0.39c-0.35-0.67-0.23,0.03-0.82-0.78
								c0.48,0.93-2.49-0.33-1.65,0.7c-0.6-0.9-1.18-0.49-2.02-1.29c0,0.2,0.28,0.42-0.52,0.23c-0.04,0.05-0.14,0.12-0.2,0.16
								c-0.02-0.01-0.03-0.01-0.05-0.02l0.04,0.03c-0.04,0.03-0.04,0.03,0.02,0.01c0.18,0.11,0.33,0.23,0.38,0.35
								c-0.46,0.41-1.75,0.25-2.21,0.44c-0.47-0.15,0.23-0.21-0.01-0.45l-0.69,0.28c-0.02-0.45-1.21-0.89-0.04-1.02l-1.03-0.14
								c-0.58-0.34-1.41-0.48-1.94-0.33c-0.48-0.13-1.27,0.41-0.82,0.09l-1.64,0.16l-0.01-0.11c-1.6-0.17-3.32,0.5-5.1-0.43
								c-0.54,0.1-1.1,0.22-2,0.06L304,65.33c-0.7,0.11-2.06-0.46-2.37-0.06c-0.72-1.06-3.35-0.36-4.56-0.54l-0.05,0.51
								c-0.84-0.03-1.64,0.12-2.67,0.33l0.06,0.45c-0.89,0.37-2.29-0.31-3.71-0.26c0.09-0.17,0.45-0.13,0.71-0.03
								c-0.85-0.5-1.74-0.32-2.61-0.09c-0.86,0.25-1.7,0.54-2.48,0.2c-0.38,0.18-0.65,0.13-0.92,0.03c0.04,0,0.07-0.01,0.09-0.03
								c-0.04,0-0.1,0-0.16,0c-0.17-0.07-0.35-0.15-0.54-0.22c0.16,0.1,0.32,0.19,0.45,0.22c-0.29,0.02-0.74,0.09-1.17,0.22
								l-0.21-0.47c-0.04,0.01-0.06,0.01-0.1,0.02c-0.44-0.16-0.34,0.24-0.09,0.59c-0.22,0.09-0.41,0.19-0.56,0.31
								c-0.38-0.76-1.13,0.3-1.64-0.51c-0.28,0.4-2.18,0.4-2.36,1.28c-0.02-0.11-0.15-0.15,0.08-0.18c-0.49-0.06-0.98-0.13-1.4,0.14
								l-0.24-0.6l-1,0.89c-0.67-0.33-0.95-0.53-0.34-1.04c-1.49,0.83-1.23,0.36-2.49,1.16l0.03-0.4c-0.47,0.05-1.17,0.63-1.48,0.32
								c-1.11-0.68-5.17,0.39-7.93-0.06c0.64,1.11-1.3-0.4-1.31,0.51c-0.19-0.26-0.58-0.36-0.17-0.66
								c-1.34,0.44-2.11-0.18-2.96,0.69c-0.19-0.26,0.24-0.44,0.09-0.58c-0.1,0.07-0.41,0.29-0.57,0.15
								c-0.16-0.15,0.17-0.25,0.38-0.4c-1.39,0.22-1.43,1.08-1.43,1.88c-0.75-0.29-1.1-0.19-1.54,0.39
								c-0.28-0.23-0.72-0.45,0.13-0.65c-0.49,0.02-3.03-0.02-2.99,0.64c-0.17-0.14-0.68,0.05-0.8,0.14
								c-1.09,0.12-1.2,0.08-2.26,0.3l0.31,0.06c-0.31,0.83-0.86,0.3-1.71,0.52l0.01-0.08c-2.06-0.26-0.81,0.39-2.86,0.05l0.18,0.46
								c-0.02,1.04-1.82-0.33-2.88,0.26l0.45,0.2c-0.56,0.45-1.95-1.09-2.59-1.11c-0.15-0.07,0.19-0.18,0.37-0.28
								c-1.73-0.32-0.11,0.66-1.29,1c-0.28-0.3,0.14-0.9-0.68-0.82c-0.45-0.19-2.17,1.47-3.39,1.05c0.29,0.21,0.58,0.42,0.06,0.72
								c-0.84,0.25-2.5-0.53-3.12,0.43c-0.12-0.05-0.18-0.11-0.19-0.17c-0.62,0.33-2.06,0.75-2.37,1.27
								c-0.93-1.53-3.9,1.61-4.19,0.11l-1.99,0.5l0.02-0.16c-1.3,0.17-1.68,0.62-2.05,1.08c-0.32-0.04-0.13-0.22-0.12-0.31
								c-1.94,0.09-2.11,0.22-3.5,1.31l-0.27-0.45c-0.36,0.38-2.87-0.14-4.57,0.84c0.01-0.06,0.02-0.16,0.15-0.26
								c-1.92,1.05-5.24-0.13-5.56,1.8l-1.24,0.76c1.78-0.29-0.07,0.82,0.72,0.94c-0.66,0.27-1.91-0.09-1.09-0.39l0.15,0.06
								c0.08-1-2.25,0.23-2.36-0.4c-3.42,0.94-6.9,1.31-10.11,2.18l0.57,0.6l-1.13,0.27c-0.34-0.08-0.55-0.44,0.26-0.63
								c-0.53-0.28-1.24,0.71-1.22,0.86c-1.64,0.15,0.38-0.99-0.11-0.87l-0.64,0.23l0.17,0.04c-0.45,0.43-0.4,0.75-1.37,1
								c-0.64,0.04-0.43-0.34-0.68-0.3c-0.01-0.05-0.1-0.05-0.37,0.09l-1.42,0.35l0.72,0.39c-0.54,0.45-1.33,0.36-0.5,0.79
								c-1.24-0.7-5.32,1.19-5.99,1.08c-0.74,0.67-1.6,0.92-2.67,1.2c0.3,0.03,0.65,0.61-0.29,0.81c-0.07-1.38-1.84-0.02-2.87-0.71
								c0.85,0.4-2.54,0.98-1.23,1.51c-0.79,0.14-0.2-0.46-0.87-0.58c-1.65,1.07-4.08,0.99-6.26,1.89c0.02,0.18,0.48,0.31,0.09,0.72
								l-1.45-0.43c-0.41,0.23-0.08,1.1-1.07,0.8c0.16,0.1,0.4,0.25,0.13,0.41c-4.64,0.69-8.61,3.76-13.55,3.92
								c0.71,0.09,0.33,0.27-0.12,0.46c0.32-0.04,0.15,0.41,0.29,0.61l-2.07,0.09c-0.09,0.75-1.94,0.81-1.9,1.48l0.53-0.34
								c-0.49,1,1.68,1.12,1.92,2.06c0.54-1.13,2.7,0.3,3.67-1.36c0.38,0.07-0.16,0.39,0.09,0.53c0.21-0.52,0.61-0.76,1.47-0.88
								l-0.05,0.13c2.21-0.93,3.31-0.9,5.93-1.55l-0.35-0.38c0.57-0.13,0.73-0.03,1.02-0.01c0.38-0.9-1.54,0.5-1.24-0.44
								c1.05,0.65,3.85-1.35,4.7-0.47c0.84-0.28-0.43-0.43,0.42-0.72l0.32,0.2l0.09-0.43c0.57-0.13,0.97,0.13,1.07,0.36
								c-0.14,0.02-0.36,0.2-0.49,0.27c0.83,0.09,1.97-0.8,2.26-0.78l-0.87,0.1c2.21-1.03,5.13-1.61,7.18-2.88l-0.24-0.16
								c1.58-0.94,1.44-0.2,3.25-0.98l-0.05,0.07c0.31-0.33,0.77-0.6,1.3-0.73c-0.4,0.39,1.04,0.21,0.51,0.68
								c1.72-0.99,0.81-0.61,1.8-1.78l0.39,0.27c0.32-0.45,0.3-0.63,1.22-1.01c-0.68,0.54,0.76,0.36,0.02,1.02
								c2.2,0.17,2.7-1.66,3.94-0.79c0.62-1.25-1.87-0.05-1.43-0.41c-0.52-0.2,0.53-0.95,1.18-1.04c0.64-0.16,1.44,0.95,3.03,0.46
								c-0.16,0.04-0.15,0.12-0.31,0.16c0.67,0.08,1.07-0.68,1.91-0.48c0.24-0.71,0.96-0.23,0.86-1.02l-1.41,0.59
								c0.77-0.44,1.3-1.54,2.79-1.49c-0.06,0.18-0.41,0.5-0.66,0.69c0.46,0.11,0.73-0.36,1.21-0.25c0.09,0.8-1.73,0.66-2.45,1.49
								c0.52,0.2,1.52-1.02,1.31-0.07c0.35-1.23,1.61-0.3,2.46-1.41l0.06,0.48c0.15-0.12,0.45-0.43,0.76-0.51l-0.41,0.75
								c0.73-0.75,1.8-0.03,2.57-0.53c-1.75,0.49-0.54-0.44-1.38-0.57c2-1.21,1.57,0.86,3.94,0c-0.31,0.15-1.31,0.05-0.85-0.3
								c0.49-0.03,1.14-0.01,1.49,0.16c1.58-0.52-0.37-0.41,0.24-0.87c0.69,0.42,0.73-0.44,1.39-0.8l0.13,0.47
								c1.91-0.18,0.24-1.11,1.99-1.17l-0.54,0.82l0.82-0.38l-0.04,0.58c0.84-0.63,1.16-0.6,2.12-0.67c-0.3-0.28-0.09-0.88,0.72-1.1
								c0.63,0.14-0.2,0.52,0.94,0.17c-0.19,0.36-0.38,0.8-0.99,0.49c-0.01,0.17-0.18,0.36-0.2,0.52c0.68,0.17,1.52-0.3,1.94-0.4
								c-0.17,0.02-0.36,0.04-0.48,0l1.52-1.06c0.31,0.11,0.13,0.3-0.04,0.49c0.33-0.13,0.51-0.41,1-0.57
								c-0.04,0.41,0.09,0.8-0.58,1.15l1.5-0.81c0.15,0.14,0.93,0.27,0.75,0.46c0.94,0.02,2-1.24,3.25-1.21
								c0.04-0.09,0.15-0.19,0.39-0.3c1.13-0.16,2.21,0.07,3.41-0.73l0.9,0.53c1-0.37-1.2-0.65,0.46-1.27
								c1.17-0.48,0.58,0.49,1.05,0.59c0.53-0.47,1.44-1.4,2.67-1.08C228.07,77.92,227.76,77.87,227.43,78z M240.13,75.24
								c-0.23,0.14-0.67,0.53-0.9,0.28C239.42,74.93,239.68,75.15,240.13,75.24z M259.53,71.18c-0.17,0.18-0.46,0.14-0.81,0
								C258.94,71.11,259.21,71.09,259.53,71.18z M314.85,66.49c-0.01,0.01-0.02,0.01-0.03,0.02
								C314.26,66.28,314.46,66.37,314.85,66.49z M316,66.83c0.13-0.05,0.12-0.12,0.08-0.19c-0.09,0.11-0.36,0.09-0.66,0.02
								C315.5,66.79,315.64,66.89,316,66.83z M190.95,82.51l0.25,0.06C190.75,82.85,190.86,82.69,190.95,82.51z"/>
							<path class="st10" d="M257.38,72.11c-0.08-0.07-0.11-0.16-0.14-0.25C257.15,71.95,257.16,72.05,257.38,72.11z"/>
							<path class="st10" d="M219.59,79.96l-0.04,0c-0.01,0.03-0.02,0.06-0.02,0.09L219.59,79.96z"/>
							<path class="st10" d="M297.63,69.89c-0.24-0.07-0.37-0.16-0.46-0.25C297.16,69.76,297.26,69.86,297.63,69.89z"/>
							<path class="st10" d="M322.36,66.74l-0.77,0.04c0.37,0.02,0.49,0.14,0.66,0.24C322.24,66.9,322.12,66.72,322.36,66.74z"/>
							<path class="st10" d="M328.4,70.71c0.12-0.04,0.23,0.03,0.35-0.01l0.01-0.23C328.3,70.41,327.94,70.54,328.4,70.71z"/>
							<path class="st10" d="M322.84,68.41c0,0.41,0.49,0.32,1.03,0.34c-0.03,0-0.06-0.01-0.09-0.02
								C324.01,68.2,323.43,68.28,322.84,68.41z"/>
							<path class="st10" d="M323.99,68.76c0.16,0.01,0.33,0.02,0.48,0.07C324.57,68.61,324.29,68.75,323.99,68.76z"/>
							<path class="st10" d="M317.53,66.73c0.24,0.13,0.21-0.5,0.34-0.32C318.2,65.94,316.12,66.84,317.53,66.73z"/>
							<polygon class="st10" points="323.08,69.79 322.96,69.27 322.62,69.63 							"/>
							<path class="st10" d="M319,68.94l0.82,0.24c0-0.08,0.11-0.12,0.24-0.14C319.55,68.95,319,68.79,319,68.94z"/>
							<path class="st10" d="M320.06,69.03c0.27,0.04,0.52,0.06,0.68,0C320.6,69.02,320.29,69,320.06,69.03z"/>
							<polygon class="st10" points="321.92,69.8 321.69,69.67 321.1,69.56 							"/>
							<path class="st10" d="M309.99,68l-0.93,0.08c-0.1,0.16,0.14,0.29,0.48,0.24C309.77,68.22,310.12,68.18,309.99,68z"/>
							<path class="st10" d="M312.65,69.57c-0.24-0.12-0.25-0.23-0.37-0.41l-0.08,0.62L312.65,69.57z"/>
							<path class="st10" d="M309.98,69.52c-0.1,0.17-1.35,0.4-0.2,0.44C309.88,69.8,310.81,69.73,309.98,69.52z"/>
							<polygon class="st10" points="296.24,68.19 296.47,68.18 296.44,67.16 							"/>
							<path class="st10" d="M284.16,70.84c1.09,0.2,0.23-0.64,1.22-0.37c0.24-0.25-0.81-0.22-0.55-0.44
								C284.18,70.32,283.83,70.18,284.16,70.84z"/>
							<path class="st10" d="M284.82,70.04c0.1-0.04,0.21-0.1,0.33-0.17C284.96,69.94,284.87,69.99,284.82,70.04z"/>
							<polygon class="st10" points="150.12,95.69 149.39,95.76 149.94,95.91 							"/>
							<path class="st10" d="M149.14,96.9l-0.4-0.54l-0.18,0.71C148.7,96.98,148.98,96.81,149.14,96.9z"/>
							<path class="st10" d="M242.26,76.2l0.03-0.16c-0.13-0.15-0.3-0.13-0.62-0.11L242.26,76.2z"/>
							<polygon class="st10" points="232.91,77.41 233.07,77.4 232.66,76.88 							"/>
							<path class="st10" d="M225.32,79.73c0.32-0.04,0.66-0.25,0.99-0.29C225.64,79.68,225.08,79.03,225.32,79.73z"/>
						</g>
					</g>
				</g>
			</g>
		</g>
	</g>
</g>
<g id="Capa_8">
</g>
<g id="Capa_5" class="st0">
	<text transform="matrix(1 0 0 1 1.2001 304.8)" class="st8 st11 st12">La Karreta</text>
</g>
<g id="Capa_3" class="st0">
	
		<text transform="matrix(1 0 0 1 92.3597 -140.9479)" class="st12" style="display:inline;fill:#83AC3F; font-family:'2Peas-Mister-Giggles';">Karret</text>
	
		<text transform="matrix(1 0 0 1 -9.1103 -138.7932)" class="st12" style="display:inline;fill:#83AC3F; font-family:'2Peas-Mister-Giggles';">L </text>
	
		<text transform="matrix(1 0 0 1 18.9853 -157.7713)" class="st12" style="display:inline;fill:#83AC3F; font-family:'2Peas-Mister-Giggles';">a</text>
	
		<text transform="matrix(1 0 0 1 436.6748 -157.7711)" class="st12" style="display:inline;fill:#83AC3F; font-family:'2Peas-Mister-Giggles';">a</text>
</g>
<g id="Capa_1">
	<g>
		<text transform="matrix(1 0 0 1 119.6492 356.2871)" class="st2 st13 st14">Karreta</text>
	</g>
	<g class="st0">
		<path class="st15" d="M133.86,164.18h3.7v33.51c0,1.83,0.48,3.24,1.44,4.23c0.96,0.99,2.33,1.48,4.11,1.48h5.06v3.43h-4.42
			c-3.32,0-5.8-0.8-7.44-2.41c-1.64-1.61-2.45-4.05-2.45-7.32V164.18z"/>
	</g>
	<text transform="matrix(1 0 0 1 110.4017 202.126)" class="st16 st11 st17 st18">La</text>
	<g>
		<text transform="matrix(1 0 0 1 3.6102 356.2871)" class="st2 st13 st14">La</text>
	</g>
</g>
<g id="Capa_2" class="st0">
	<g>
		<g class="st8">
			<g>
				<g>
					<g>
						<path class="st19" d="M-6.25-237.02c0.45-0.15,0.14-0.47,0.18-0.57C-6.76-237.2-6.19-236.93-6.25-237.02z"/>
						<polygon class="st19" points="-12.91,-232.96 -12.87,-233.18 -13.68,-232.29 						"/>
						<path class="st19" d="M-19.15-229.38c0.96,0.25,2.16-1.46,3.39-1.91l0.26,0.03l0.21-0.8
							C-16.59-231.17-18.1-229.79-19.15-229.38z"/>
						<path class="st19" d="M-23.2-228.43c0.36,0.08-0.55,0.69,0.79-0.46c-0.09,0.03-0.12,0.03-0.18,0.04
							C-22.71-228.76-22.89-228.63-23.2-228.43z"/>
						<path class="st19" d="M-22.58-228.86C-21.96-229.32-23.13-228.75-22.58-228.86L-22.58-228.86z"/>
						<path class="st19" d="M-25.35-226.6c0.21-0.28,0.41-0.57,0.64-0.83c-0.29-0.02-1,0.54-0.81,0.23
							C-26.25-226.42-25.97-226.43-25.35-226.6z"/>
						<path class="st19" d="M-25.76-225.58l0.34-0.42C-25.54-225.99-25.66-225.92-25.76-225.58z"/>
						<path class="st19" d="M-24.71-226.89l-0.72,0.89c0.18,0,0.34,0.17,0.34-0.39C-25.02-226.16-24.98-226.46-24.71-226.89z"/>
						<path class="st19" d="M-24.13-227.17c0.56-0.21,1.2-0.56,0.53,0.23C-22.1-228.14-22.62-228.38-24.13-227.17z"/>
						<path class="st19" d="M-19.05-228.57l0.74-0.21l0.42-0.54C-18.1-229.05-19.21-228.74-19.05-228.57z"/>
						<path class="st19" d="M-30.38-222.71c0.06,0.15,0.52,0.06,0.71,0.14l0.42-0.65C-29.6-223.02-30.19-222.58-30.38-222.71z"/>
						<path class="st19" d="M-29.67-222.56l-0.62,0.97C-29.56-222.27-29.51-222.49-29.67-222.56z"/>
						<polygon class="st19" points="-25.4,-224.85 -24.34,-226.45 -25.66,-224.62 						"/>
						<polygon class="st19" points="-33.45,-219.68 -33.28,-220.4 -33.65,-219.19 						"/>
						<path class="st19" d="M-35.31-217.5c0.1-0.55-0.8,0.17-0.61-0.33c-0.47,0.63-0.74,1.27-0.94,1.89
							C-36.56-216.52-36.06-217-35.31-217.5z"/>
						<path class="st19" d="M-37.21-214.94c0.14-0.29,0.24-0.63,0.35-1C-37.01-215.63-37.13-215.31-37.21-214.94z"/>
						<path class="st19" d="M-31.71-220.32c-0.13,0-0.42-0.06-0.94,0.31l0.62-0.01C-31.93-220.11-31.82-220.22-31.71-220.32z"/>
						<path class="st19" d="M-32.01-220.02l-0.02,0c-0.35,0.32-0.59,0.55-0.68,0.66C-32.63-219.45-32.42-219.66-32.01-220.02z"/>
						<path class="st19" d="M-31.63-220.4c-0.03,0.03-0.05,0.05-0.08,0.08C-31.65-220.32-31.62-220.33-31.63-220.4z"/>
						<path class="st19" d="M-27.87-223.28c-0.37,0.57-1.12,1.74,0.05,1.09C-27.67-222.72-28.38-222.38-27.87-223.28z"/>
						<path class="st19" d="M-30.86-220.4l0.91-0.75c-0.09-0.07-0.36-0.03-0.21-0.35L-30.86-220.4z"/>
						<polygon class="st19" points="-31.17,-219.9 -30.86,-220.4 -31.2,-220.12 						"/>
						<path class="st19" d="M-35.61-216.27c-0.21,0.5-0.55,0.94-0.9,1.47c0.46-0.5,0.96-1,1.4-1.49
							C-35.15-216.45-35.14-216.83-35.61-216.27z"/>
						<path class="st19" d="M-33.85-218.09c-0.02,0.03-0.04,0.07-0.06,0.1C-33.83-218.02-33.79-218.05-33.85-218.09z"/>
						<polygon class="st19" points="-40.18,-209.77 -40.06,-209.81 -40.11,-209.87 						"/>
						<path class="st19" d="M-34.98-216.33c0.4-0.33,0.52-0.62,0.61-0.93c-0.22,0.31-0.47,0.63-0.75,0.96
							C-35.09-216.23-35.07-216.2-34.98-216.33z"/>
						<path class="st19" d="M-38.11-213.42c0.23-0.16,0.48-0.35,0.72-0.56C-37.65-213.86-38.14-213.57-38.11-213.42z"/>
						<path class="st19" d="M-34.11-217.94l0.04-0.07C-34.25-217.94-34.2-217.93-34.11-217.94z"/>
						<path class="st19" d="M-34.11-217.94c-0.13,0.24-0.19,0.46-0.25,0.68c0.18-0.25,0.34-0.5,0.46-0.73
							C-33.97-217.96-34.05-217.94-34.11-217.94z"/>
						<path class="st19" d="M-38.89-206.73c-0.29-0.28,0.11-1.57,1.08-2.28c0.35-1.09-1.1-1.24-2.25-0.81
							c0.12,0.13,0.26,0.22-0.18,1.32c0.41-0.23,1.82-1.87,1.59-0.85c-0.66,1.39-0.79,0.97-1.38,1.48c0.76-0.26-0.44,2,0.36,2.1
							l0.5-1.24C-39.07-206.97-39.18-206.48-38.89-206.73z"/>
						<path class="st19" d="M-38.78-211.64l0.25-0.41c-0.38,0.4-0.77,0.61-1.41,1.05c-0.28,0.79-0.25,1.01-0.17,1.13
							c0.46-0.65,0.87-1.33,1.38-1.93L-38.78-211.64z"/>
						<path class="st19" d="M-37.22-213.77c0.11,0.56-0.43,1.58,0.36,1.31c0.82-1.13,0.31-1,0.67-1.78
							c-1.29,1.87,0.21-0.67-0.98,0.49c0.21-0.4,0.44-0.74,0.66-1.05c-0.29,0.29-0.58,0.57-0.87,0.82c0.02-0.01,0.04-0.02,0.05-0.03
							l0.01-0.01l0,0.01c0.1-0.05,0.15-0.05,0.06,0.02c0,0.01-0.02,0.03-0.02,0.04C-37.25-213.91-37.24-213.84-37.22-213.77
							c-0.47,0.47-0.15,0.01-0.07-0.18c-0.01-0.02-0.02-0.05-0.03-0.06l-0.01,0l-1.2,1.96C-38.19-212.4-37.83-212.89-37.22-213.77z"
							/>
						<path class="st19" d="M-28.05-220.68c-0.08,0.02-0.09,0-0.12-0.02C-28.23-220.56-28.25-220.5-28.05-220.68z"/>
						<path class="st19" d="M-28.88-220.23c0.07-0.16,0.05-0.38,0.46-0.71c0.42-0.22,0.14,0.15,0.25,0.24c0.15-0.3,0.59-1-0.27-0.46
							l-0.07,0.15c-0.74,0.52-1.96,0.95-1.89,0.8C-29.93-220.12-29.57-220.09-28.88-220.23z"/>
						<path class="st19" d="M-33.11-217.06l-1.08,1.54l0.91-0.47l-0.2-0.11C-32.71-216.83-33.07-216.84-33.11-217.06z"/>
						<polygon class="st19" points="-40.48,-209.71 -40.72,-210.17 -40.79,-208.89 						"/>
						<polygon class="st19" points="-41.79,-207.6 -42.07,-207.88 -42.23,-207.21 						"/>
						<path class="st19" d="M8.18-104.27l0.53-0.02C8.46-104.3,8.3-104.29,8.18-104.27z"/>
						<path class="st19" d="M4.47-105.03l-0.13,0.17C4.53-104.93,4.62-104.99,4.47-105.03z"/>
						<path class="st19" d="M-49.14-148.94c-0.1,0.88-0.34,1.94,0.04,1.71l0.33-0.38C-49.02-148.13-49.12-148.56-49.14-148.94z"/>
						<path class="st19" d="M-24.56-116.79c-0.03-0.08-0.06-0.17-0.09-0.25c-0.24-0.01-0.46-0.02-0.67-0.03
							C-25.09-116.99-24.83-116.89-24.56-116.79z"/>
						<path class="st19" d="M-22.99-117.84l0.62,0.84C-22.49-117.22-22.69-117.49-22.99-117.84z"/>
						<path class="st19" d="M28.7-104.45l0.54-0.51C28.3-104.85,28.75-104.68,28.7-104.45z"/>
						<path class="st19" d="M-50.81-184.01c-0.3,0.66-0.48,1.2-0.6,1.68C-51-183.13-50.5-183.72-50.81-184.01z"/>
						<path class="st19" d="M5.85-100.01c0.35-0.02,0.51-0.08,0.52-0.18C6.01-100.17,5.79-100.13,5.85-100.01z"/>
						<path class="st19" d="M-51.72-180.32c0.06-0.12,0.09-0.24,0.15-0.36c-0.02-0.52,0-1.05,0.16-1.66
							c-0.15,0.29-0.3,0.61-0.37,0.95C-51.83-181.04-51.83-180.68-51.72-180.32z"/>
						<path class="st19" d="M82.93-149.94c0.04-0.05,0.07-0.1,0.1-0.14C82.99-150.12,82.96-150.05,82.93-149.94z"/>
						<path class="st19" d="M90.42-171.51c0.03,0.23,0.04,0.6,0.05,0.95C90.49-170.73,90.49-171.02,90.42-171.51z"/>
						<path class="st19" d="M-46.56-198.82C-46.37-199.31-46.57-198.92-46.56-198.82L-46.56-198.82z"/>
						<path class="st19" d="M-43.95-200.42c0,0.12,0.02,0.22,0.11,0.28C-43.92-200.22-43.95-200.32-43.95-200.42z"/>
						<path class="st19" d="M-49.58-174.92c0,0.01,0,0.03,0,0.04C-49.49-175.02-49.51-174.99-49.58-174.92z"/>
						<path class="st19" d="M-46.05-199.46c-0.13,0.16-0.26,0.35-0.4,0.56C-46.37-198.99-46.25-199.16-46.05-199.46z"/>
						<path class="st19" d="M-46.28-199.45c0.09-0.16,0.16-0.28,0.23-0.4C-46.09-199.94-46.16-199.91-46.28-199.45z"/>
						<path class="st19" d="M-46.84-198.14c0.12-0.28,0.25-0.53,0.39-0.76c-0.07,0.08-0.11,0.11-0.11,0.08
							C-46.62-198.68-46.7-198.48-46.84-198.14z"/>
						<path class="st19" d="M61.06-116.62c0.03-0.01,0.07-0.03,0.11-0.03C61.46-117.11,61.3-116.95,61.06-116.62z"/>
						<path class="st19" d="M-39.89-138.46c-0.01-0.02-0.03-0.02-0.04-0.04c0.01,0.02,0.01,0.05,0.02,0.07L-39.89-138.46z"/>
						<path class="st19" d="M-38.74-137.07c-0.84-0.39-1.02-0.79-1.17-1.35l-0.82,1.12L-38.74-137.07z"/>
						<path class="st19" d="M17.19-103.5l-1.22-0.42c1.51-0.61,2.55-0.36,1.43-0.93c-0.23,1.42-4.72-0.13-5.01,1.19l-0.78-0.39
							c0.23,0.04,0.28-0.03,0.5,0.01c-1.48-0.85-1.28,0.84-3.3,0.36c-0.69-0.23-1.15-0.51-0.64-0.58l-1.63,0.05
							c-0.45-0.11-0.29-0.32,0.15-0.21c-0.81-0.09-1.6-0.25-2.39-0.4l0.03-0.03c-0.38,0.13-1.23,0.27-1.64,0.32
							c-0.56-0.33,0.34-0.07,0.23-0.27c-0.47,0.02-0.93-0.02-1.39-0.03c-0.43-0.5,0.72-0.49,1.61-0.24
							c-0.88-1.6-1.17,0.04-3.55-1.45l1.26,0.18c-0.28-0.48-0.67-0.72-1.15-0.95c-0.47-0.25-1.01-0.49-1.6-0.94
							c0.22,0.34,2.31,2.06,0.84,1.92c-0.36-0.23-0.85-0.45-1.69-0.44c0.16-0.47-0.62-0.56-1.52-0.9l0.29-0.57
							c-1.02-0.2-1.06,0.13-1.74,0.17c-1.06-0.47-1.07-1.04-1.15-1.53c-1.63-0.85,0.84,1.25-1.2,0.46c-1.31-0.83-2.37-1.09-4.2-1.6
							c-0.86-0.69,0.35-0.26,0.09-0.6c-0.37,0.01-0.72-0.01-1.08-0.02c-0.2-0.13-0.06-0.23,0.02-0.28c-0.8-0.23-0.37,0.53-1.57,0.04
							c-0.32,0.21-0.78-0.31-1.33-0.97c-0.56-0.65-1.23-1.36-2.12-1.45c-0.23-0.36,0.38-0.22,0.41-0.49
							c-2.07-0.8-1.72-0.74-3.6-1.21l-0.94-1.27c0.58,1.07-0.88,0.64-2.19,0.21c0.17,0.43,0.32,0.8,0.44,1.02
							c-0.62-0.33-1.22-0.67-1.81-1.04c-0.12-0.24,0.18-0.27,0.61-0.26c-0.14-0.05-0.27-0.1-0.38-0.13
							c-0.4-0.66,0.13-0.69,0.75-0.62c0.1,0.26,0.2,0.52,0.3,0.78c0.63,0.03,1.28-0.03,1.43-0.39c-0.15-0.02-0.39-0.13-0.63-0.27
							c0.17,0,0.29-0.02,0.29-0.11c-0.01-0.09-0.26-0.11-0.61-0.21l0.12-0.84l-0.27,0.14c-0.55-0.69-1.13-1.35-1.65-2.05
							c-0.91-0.37-1.85-0.66-2.86-1.08c-0.98-0.46-2.04-1.06-3.17-2.08c0.88,0.21,0.74-0.45,1.22-0.84
							c0.08,1.03,1.77,1.49,2.76,2.66c-0.53-0.6-0.18-0.7,0.03-0.62l-2.31-1.56c0.42-0.3-0.13-0.67-0.43-1.35
							c-0.38,1.07-1.86-1.08-2.78-1.77c0.23-0.28,0.62-0.25,1.46,0.82c-0.4-1.59-2.13-0.77-2.56-2.32c0.21,0.26,0.28,0.43,0.5,0.43
							c-0.74-0.41-1.67-2.1-1.16-1.91l0.2,0.27c-1.23-1.83-3.74-5.55-4.59-5.45c0.08-0.07,1.03-0.27,1.24-0.24
							c-1.46-0.65-2.99-1.32-4.43-2.1c0.81-0.03,1.75-2.01,2.94-0.58c-0.15-0.51-0.33-1.14-1.06-2c0.07,0.36-0.54,1.27-0.82,0.86
							c0.11-1.56-0.04-1.04-0.09-2.83c0.08,0.55-1.21,0.49-1.53-0.32c0.21,0.05,1.01-0.52,1.24-0.28c-0.64-0.48-1.26-0.99-1.86-1.51
							c0.38,0.42,0.92-0.27,1.04-0.83c-0.11,0.28-0.67-1.68-0.93-2.18c0.01,0.31,0.02,0.62,0.05,0.93c-0.33-1.14-0.87-1.57-1.45-2
							c-0.57-0.43-1.19-0.86-1.48-2.04c0.3,0.22,1.56,0.27,1.37-0.92c-0.35-0.18-1.19-0.58-2.06-1.2c-0.84-0.63-1.71-1.48-2.18-2.5
							l0.23-0.48c-0.24-0.52-0.45-1.05-0.67-1.57c1,0.9,3.42,3.3,4.49,4.57c0.01-0.92,0.3-0.33-0.03-1.61
							c0.2-0.52,0.61,0.59,0.72,0.96l-0.5-3.01c-0.66,0.28-1.08-2.17-1.62-1.96c0.42,1.07,0.84,2.12,1.34,3.15
							c-0.31,0.14-0.89-0.22-1.43-0.91c-0.53-0.69-0.98-1.72-1.12-2.82c0.16-0.6,1.26,0.22,1.47,0.14
							c-0.14-0.12-0.35-0.61-0.48-1.11c-0.12-0.5-0.2-0.99-0.13-1.1l0.47,0.87c0.11-1.23-1.15-1.86-0.66-3.4
							c0-0.51,0.75-1.57,0.35-1.63c-0.7,0.87-3.05,1.26-3.67,0.72c0.02-0.2,0.52-2.82,0.93-3.42c0.58-0.87,1.46,1.23,1.96,0.48
							c-0.18-0.02-0.42-0.48-0.5-0.67c0.14-0.54,0.57,0.21,0.46-0.95c-0.7-0.18,0.03-2.37-0.59-0.54c-0.22-1.14,0.17-1.21,0.18-2.55
							c-0.46,0.42-1.45-1.26-1.6-2.45c0.17,0.08,0.41-0.17,0.51-0.29c0.23-2.37,0.77-3.59,1.01-5.78c0.16-0.18,0.6-1.18,0.79-0.69
							c-0.06-0.33-0.23-0.65-0.11-1.32c0.83-1.17-0.2,1.49,0.69,0.64c-0.37-0.15-0.2-1.8-0.25-2.8c-0.66,0.16-0.55,2.17-0.49,3.16
							c-0.83-0.13-1.37-1.96-1.29-4.37c0.23-1.88,0.73-0.66,0.68-1c0.54-1.67,0.39-2.48,0.28-3.23c-0.1-0.74-0.24-1.42,0.59-2.7
							c0.91-0.92,1.03,0.3,1.48,0.18c-0.35,1.47-1.06,2.09-1.32,3.09l0.58-1.14c0.04,0.52-0.1,1.52-0.4,2
							c0.18-0.2,0.38-0.65,0.58-1.25c0.2-0.6,0.42-1.35,0.74-2.13c0.61-1.56,1.21-3.36,1.96-4.48c0.03-0.5,0.2-1.32-0.16-1.05
							l-0.28,0.8c-0.72,0.55,0.11-1.7-0.52-0.79c0.19-1.16,0.3-2.56,1.2-3.93l0.69,0.01c-0.2-0.06-0.79,0.79-0.81,1.29
							c0-0.76,1.84-1.84,1.5-2.85l-0.92,0.8c0.28-1.16,0.41-2.75,1.29-3.94c-0.84,0.28-0.1,0.33-1.22,0.89
							c1.2-0.36-1.84,3.28-0.32,2.44c-0.62,0.28-0.93,0.64-1.22,1.06c-0.27,0.43-0.55,0.9-1.16,1.39c0.2,0.05,0.56-0.29-0.05,0.79
							c0.03,0.08,0.04,0.23,0.05,0.32c-0.02,0.03-0.03,0.04-0.05,0.07l0.05-0.05c0.01,0.06,0.01,0.07,0.02-0.02
							c0.2-0.23,0.4-0.4,0.54-0.44c0.17,0.75-0.65,2.5-0.68,3.19c-0.34,0.64-0.11-0.37-0.45-0.08l0,1.05
							c-0.45-0.08-1.36,1.55-1.02-0.16l-0.55,1.45c-0.54,0.78-1.11,1.92-1.13,2.73c-0.29,0.68-0.02,1.92-0.19,1.21l-0.39,2.41
							l-0.11-0.01c-0.39,1.14-0.43,2.4-0.58,3.66c-0.13,1.27-0.47,2.54-1.02,3.84c0.02,0.82,0.06,1.66-0.23,2.98l-0.42,0.22
							c0.02,0.52-0.21,1.29-0.3,1.99c-0.09,0.7-0.15,1.34,0.05,1.57c-0.54,0.53-0.65,1.81-0.65,3.17c0.01,1.36,0.26,2.8,0.17,3.72
							l0.51,0.05c0.01,1.26,0.29,2.45,0.6,3.98l0.44-0.14c0.24,0.64,0.29,1.5,0.28,2.46c-0.02,0.96-0.01,2.03,0.21,3.06
							c-0.19-0.11-0.24-0.65-0.21-1.04c-0.58,2.7,1.72,5.08,1.62,7.44c0.31,0.51,0.37,0.92,0.37,1.33
							c-0.02-0.05-0.04-0.09-0.06-0.13c0.01,0.06,0.03,0.14,0.06,0.23c0,0.26-0.02,0.54-0.01,0.83c0.04-0.26,0.06-0.51,0.05-0.71
							c0.12,0.42,0.37,1.05,0.7,1.63l-0.37,0.41c0.02,0.05,0.04,0.09,0.06,0.14c0.04,0.67,0.38,0.42,0.62-0.02
							c0.18,0.29,0.37,0.54,0.55,0.72c-0.58,0.76,0.81,1.52,0.31,2.47c0.27,0.13,0.64,0.87,1.06,1.57c0.43,0.69,0.95,1.33,1.4,1.32
							c-0.09,0.07-0.06,0.26-0.21-0.05c0.21,0.69,0.42,1.4,0.9,1.88l-0.41,0.54l1.45,1.03c0.1,1.02,0.1,1.48-0.76,0.85
							c1.69,1.71,1.15,1.52,2.72,2.86l-0.39,0.12c0.35,0.61,1.41,1.26,1.36,1.78c0.05,0.43,0.33,1.05,0.75,1.81
							c0.45,0.74,1.05,1.59,1.69,2.51c0.67,0.9,1.39,1.86,2.09,2.8c0.7,0.94,1.4,1.84,1.93,2.73c0.18-0.69,0.38-0.24,0.66,0.3
							c0.28,0.53,0.63,1.18,1.01,0.93c-0.04,0.36,0.24,0.88-0.39,0.57c1.6,1.32,1.91,2.51,3.45,2.95c-0.02,0.37-0.6-0.01-0.55,0.26
							c0.16,0.07,0.64,0.28,0.69,0.55c0.05,0.26-0.38-0.03-0.7-0.17c1.61,1.4,2.35,0.87,2.98,0.37c0.55,0.98,0.99,1.29,1.92,1.35
							c0.12,0.43,0.44,1.02-0.64,0.29c0.28,0.24,1.1,1.01,1.9,1.66c0.82,0.63,1.66,1.11,1.87,0.88c0.09,0.26,0.8,0.63,1,0.68
							c1.33,0.95,1.44,1.05,2.82,1.88l-0.32-0.33c0.93-0.3,1.21,0.56,2.39,1.12l-0.07,0.05c2.3,1.96,1.23,0.4,3.53,2.32l0.07-0.5
							c0.36-0.41,0.84,0.05,1.49,0.59c0.65,0.55,1.44,1.25,2.29,1.42l-0.45-0.5c0.96,0.08,1.86,2.27,2.7,2.76
							c0.16,0.16-0.35,0.02-0.65-0.03c2.11,1.47,0.51-0.43,2.3,0.03c0.21,0.43-0.71,0.67,0.46,1.13c0.25,0.22,1.2,0.28,2.25,0.36
							c1.07,0.07,2.23,0.21,2.96,0.75c-0.29-0.35-0.58-0.71,0.29-0.66c1.28,0.18,3.22,1.8,4.55,1.16c0.15,0.1,0.2,0.18,0.19,0.24
							c0.51-0.02,1.32,0.04,2.09,0.06c0.77-0.01,1.49-0.07,1.82-0.25c0.35,0.88,1.92,0.9,3.36,0.76c1.44-0.09,2.75-0.26,2.71,0.49
							l3.07-0.01l-0.08,0.16c1.97,0.06,2.65-0.33,3.32-0.71c0.45,0.09,0.13,0.24,0.1,0.32c2.86,0.09,3.18,0.07,5.45-1.01l0.31,0.46
							c0.59-0.35,4.24,0.21,6.87-1.03c-0.01,0.06-0.05,0.17-0.25,0.29c0.74-0.33,1.59-0.48,2.46-0.65c0.86-0.17,1.75-0.28,2.58-0.42
							c1.63-0.3,2.98-0.75,3.22-1.78c0.61-0.36,1.19-0.78,1.78-1.16c-2.53,0.85,0.09-0.88-1.04-0.75c0.92-0.48,2.7-0.48,1.55,0.07
							l-0.22-0.01c-0.05,0.52,0.76,0.31,1.59,0c0.82-0.32,1.68-0.7,1.78-0.39c4.78-2.24,9.51-4.47,13.52-7.48l-0.89-0.24
							c0.47-0.33,0.92-0.68,1.39-1.03c0.46-0.15,0.84,0.07-0.16,0.81c0.77-0.08,1.42-1.56,1.34-1.7c2.05-1.31-0.19,1.27,0.39,0.8
							c0.26-0.22,0.51-0.45,0.75-0.69l-0.23,0.08c0.43-0.77,0.28-1.05,1.42-2c0.81-0.51,0.67,0.02,0.96-0.2
							c0.03,0.04,0.14-0.03,0.43-0.38l1.63-1.47l-1.04,0.19c0.5-0.87,1.5-1.39,0.32-1.16c0.45-0.06,1.02-0.47,1.67-1.02
							c0.64-0.56,1.37-1.24,2-2c0.64-0.74,1.27-1.47,1.76-2.07c0.48-0.61,0.85-1.06,1.06-1.19c0.53-1.31,1.29-2.39,2.28-3.7
							c-0.34,0.27-1,0.09-0.13-1.01c0.82,1.18,1.9-1.85,3.31-2.34c-1.06,0.57,1.89-3.61,0.29-2.65c0.68-0.98,0.48,0.19,1.18-0.46
							c0.87-2.74,3.08-5.48,4.17-8.87c-0.15-0.11-0.61,0.34-0.59-0.45l1.43-1.47c0.13-0.69-0.74-0.91,0.21-1.94
							c-0.19,0.13-0.48,0.32-0.4-0.14c1.41-3.16,2-6.66,2.46-10.14c0.43-3.5,0.67-6.98,1.51-10.49c-0.37,0.95-0.37,0.32-0.39-0.41
							c-0.08,0.47-0.43-0.01-0.67,0.08c0.22-0.97,0.41-1.95,0.59-2.93c-0.67-0.5-0.24-3.13-0.91-3.38l0.19,0.91
							c-0.84-1.14-1.52,1.82-2.51,1.68c0.92,1.3-1.08,3.49,0.04,5.65c-0.21,0.47-0.3-0.41-0.53-0.16c0.39,0.55,0.48,1.22,0.23,2.44
							l-0.09-0.14c-0.1,1.71-0.2,2.94-0.52,4.19c-0.28,1.25-0.6,2.55-1.1,4.4l0.52-0.19c-0.21,0.8-0.38,0.95-0.57,1.3
							c0.54,1.08,0.45-2.28,1.07-1.28c-1.06,0.91-1.25,5.74-2.56,6.15c-0.35,1.21,0.63-0.21,0.28,1.01l-0.38,0.24l0.28,0.42
							c-0.32,0.78-0.81,1.06-1.06,1.01c0.09-0.18,0.12-0.56,0.16-0.77c-0.69,0.9-0.83,2.9-1.1,3.2c0.21-0.35,0.4-0.71,0.58-1.08
							c-0.89,3.36-2.97,7.03-4.07,10.24l0.32-0.11c-0.94,2.42-1.19,1.69-2.55,4.15l0.01-0.12c-0.13,0.59-0.41,1.31-0.89,1.92
							c0.2-0.73-1.19,0.8-0.89-0.12c-1.26,2.51-0.47,1.34-0.95,3.29l-0.56,0.11c-0.13,0.7-0.01,0.86-0.83,2.03
							c0.5-1.09-1.01,0.33-0.51-0.93c-1.27,0.86-1.82,1.81-2.3,2.59c-0.5,0.75-0.91,1.34-1.8,1.41c-0.2,1.7,2.18-1.46,1.81-0.76
							c0.69-0.24-0.22,1.34-0.95,1.95c-0.67,0.69-2.09,0.2-3.77,1.85c0.18-0.15,0.13-0.23,0.31-0.38c-0.81,0.41-1.07,1.41-2.16,1.8
							c-0.05,0.88-1.1,0.87-0.74,1.6c0.54-0.49,1.05-1.02,1.56-1.54c-0.78,0.98-1.13,2.42-3.03,3.34c0.03-0.23,0.38-0.77,0.64-1.12
							c-0.62,0.18-0.8,0.85-1.45,1.01c-0.32-0.72,2-1.76,2.63-3.06c-0.68,0.16-1.59,1.99-1.6,0.92c-0.03,0.72-0.52,1.06-1.08,1.41
							c-0.58,0.33-1.24,0.68-1.65,1.49l-0.19-0.45c-0.16,0.21-0.46,0.7-0.85,0.95l0.34-0.99c-0.75,1.19-2.32,0.97-3.19,1.88
							c2.16-1.4,0.79,0.17,1.9-0.13c-2.38,2.28-2.21-0.07-5.16,1.9c0.39-0.28,1.71-0.65,1.16-0.07c-0.63,0.27-1.52,0.51-2,0.48
							c-2.05,1.16,0.55,0.27-0.22,0.99c-0.98-0.16-0.92,0.77-1.8,1.35l-0.21-0.43c-2.59,0.82-0.23,1.24-2.64,1.85
							c0.24-0.33,0.47-0.66,0.7-1.01c-0.36,0.24-0.74,0.43-1.11,0.64l0.04-0.6c-1.13,0.87-1.56,0.97-2.88,1.27
							c0.41,0.22,0.13,0.88-1.01,1.28c-0.87-0.01,0.29-0.58-1.3,0.03c0.28-0.41,0.55-0.91,1.39-0.72c0.02-0.17,0.26-0.41,0.28-0.58
							c-0.94-0.04-2.09,0.65-2.69,0.8c0.23-0.05,0.51-0.1,0.67-0.07l-2.18,1.31c-0.42-0.07-0.16-0.29,0.09-0.51
							c-0.47,0.18-0.73,0.52-1.44,0.71c0.09-0.43-0.04-0.78,0.89-1.25c-0.7,0.37-1.43,0.65-2.15,0.97c-0.19-0.13-1.26-0.19-1-0.4
							c-0.64,0.05-1.38,0.36-2.17,0.68c-0.79,0.32-1.65,0.68-2.52,0.61c-0.08,0.09-0.24,0.18-0.6,0.28
							c-1.61,0.15-3.06-0.24-4.92,0.44c-0.37-0.2-0.74-0.43-1.11-0.66c-1.48,0.2,1.5,0.85-0.98,1.18c-1.77,0.27-0.67-0.58-1.29-0.76
							c-0.86,0.37-2.42,1.03-4.02,0.41C16.27-103.57,16.69-103.47,17.19-103.5z M-1.03-106.3c0.37,0.03,1.15-0.08,1.32,0.26
							C-0.26-105.62-0.5-105.94-1.03-106.3z M-26.07-119.33c0.31,0.06,0.58,0.39,0.81,0.84C-25.54-118.68-25.82-118.95-26.07-119.33
							z M-48.29-193.31c0,0.02,0,0.03,0.01,0.05C-48.75-192.52-48.58-192.78-48.29-193.31z M-47.48-194.9c0-0.19-0.07-0.2-0.16-0.16
							c0.07,0.16-0.06,0.54-0.24,0.95C-47.72-194.18-47.56-194.37-47.48-194.9z M67.33-117.65l-0.34,0.14
							C67.46-118.14,67.39-117.9,67.33-117.65z"/>
						<path class="st19" d="M-23.18-117.73c0.03,0.13-0.01,0.21-0.04,0.3C-23.06-117.4-23-117.48-23.18-117.73z"/>
						<path class="st19" d="M28.6-104.36l0.06,0c0.03-0.03,0.04-0.06,0.04-0.09L28.6-104.36z"/>
						<path class="st19" d="M-47.82-168.13c-0.06,0.35-0.14,0.54-0.23,0.67C-47.93-167.45-47.83-167.61-47.82-168.13z"/>
						<path class="st19" d="M-44.38-203.84l-0.44,1.06c0.24-0.5,0.43-0.62,0.63-0.83C-44.3-203.64-44.55-203.52-44.38-203.84z"/>
						<path class="st19" d="M-36.72-210.55c0.05-0.16,0.2-0.27,0.25-0.44l-0.21-0.1C-37.08-210.53-37.23-210.04-36.72-210.55z"/>
						<path class="st19" d="M-42.47-204c0.4,0.12,0.61-0.56,0.93-1.29c-0.02,0.04-0.04,0.08-0.07,0.12
							C-41.99-205.65-42.23-204.82-42.47-204z"/>
						<path class="st19" d="M-41.46-205.45c0.1-0.22,0.21-0.44,0.34-0.64C-41.28-206.29-41.31-205.86-41.46-205.45z"/>
						<path class="st19" d="M-46.96-197.11c0.24-0.31-0.39-0.42-0.15-0.55C-47.46-198.26-47.43-195.07-46.96-197.11z"/>
						<polygon class="st19" points="-40.99,-203.9 -41.56,-203.91 -41.42,-203.33 						"/>
						<path class="st19" d="M-44.06-198.62l0.64-1.07c-0.08-0.02-0.06-0.18-0.02-0.38C-43.78-199.38-44.21-198.66-44.06-198.62z"/>
						<path class="st19" d="M-43.44-200.07c0.17-0.36,0.32-0.71,0.34-0.94C-43.19-200.81-43.37-200.38-43.44-200.07z"/>
						<polygon class="st19" points="-41.67,-202.36 -41.94,-202.09 -42.39,-201.34 						"/>
						<path class="st19" d="M-48.46-186.07l-0.12,1.36c0.14,0.17,0.32-0.17,0.35-0.67C-48.29-185.73-48.25-186.24-48.46-186.07z"/>
						<path class="st19" d="M-46.06-189.63c-0.2,0.32-0.31,0.31-0.52,0.46l0.59,0.21L-46.06-189.63z"/>
						<path class="st19" d="M-46.95-185.87c0.14,0.17,0.11,1.99,0.4,0.34C-46.72-185.7-46.51-187.01-46.95-185.87z"/>
						<polygon class="st19" points="-49.44,-166.02 -49.47,-166.36 -50.48,-166.25 						"/>
						<path class="st19" d="M-43.81-149.36c-0.25-1.53-0.74-0.15-0.84-1.57c-0.33-0.28,0.08,1.17-0.22,0.87
							C-44.32-149.25-44.31-148.75-43.81-149.36z"/>
						<path class="st19" d="M-44.87-150.06c-0.09-0.13-0.17-0.27-0.28-0.41C-45.01-150.23-44.94-150.12-44.87-150.06z"/>
						<polygon class="st19" points="90.79,-175.4 90.91,-176.48 90.63,-175.76 						"/>
						<path class="st19" d="M89.86-177.35l0.62-0.31l-0.65-0.57C89.88-178,89.99-177.55,89.86-177.35z"/>
						<path class="st19" d="M-3.19-108.41l-0.12,0.12c0.08,0.21,0.3,0.29,0.72,0.46L-3.19-108.41z"/>
						<polygon class="st19" points="9.5,-104.69 9.27,-104.73 9.61,-104.1 						"/>
						<path class="st19" d="M20.61-104.74c-0.45-0.02-0.98,0.14-1.43,0.11C20.15-104.74,20.74-104.02,20.61-104.74z"/>
					</g>
				</g>
			</g>
		</g>
	</g>
	<g>
		<g class="st8">
			<g>
				<g>
					<g>
						<path class="st2" d="M375.61-150.33c-0.08-0.36-0.44-0.11-0.53-0.14C375.36-149.91,375.71-150.37,375.61-150.33z"/>
						<polygon class="st2" points="378.48,-145.01 378.28,-145.04 379.02,-144.39 						"/>
						<path class="st2" d="M380.73-139.93c0.37-0.76-0.93-1.78-1.11-2.79l0.08-0.21l-0.71-0.18
							C379.58-142.05,380.51-140.76,380.73-139.93z"/>
						<path class="st2" d="M380.77-136.59c0.16-0.3,0.52,0.46-0.26-0.66c0.01,0.07,0,0.1,0,0.15
							C380.57-137,380.65-136.85,380.77-136.59z"/>
						<path class="st2" d="M380.51-137.1C380.21-137.62,380.49-136.65,380.51-137.1L380.51-137.1z"/>
						<path class="st2" d="M381.95-134.75l-0.59-0.57c-0.06,0.23,0.24,0.86,0.01,0.69C381.9-133.99,381.96-134.23,381.95-134.75z"/>
						<path class="st2" d="M382.79-134.39l-0.31-0.29C382.46-134.58,382.5-134.48,382.79-134.39z"/>
						<path class="st2" d="M381.87-135.31c0.2,0.21,0.39,0.44,0.62,0.63c0.04-0.16,0.22-0.28-0.27-0.3
							C382.43-135.02,382.17-135.07,381.87-135.31z"/>
						<path class="st2" d="M381.73-135.8c-0.07-0.46-0.25-1.01,0.33-0.44C381.28-137.49,380.94-137.07,381.73-135.8z"/>
						<path class="st2" d="M381.52-140.01l-0.08-0.6c-0.15-0.11-0.28-0.23-0.42-0.34C381.2-140.77,381.34-139.88,381.52-140.01z"/>
						<path class="st2" d="M384.28-130.43c0.15-0.04,0.19-0.45,0.32-0.61l-0.46-0.39C384.22-131.12,384.44-130.59,384.28-130.43z"/>
						<path class="st2" d="M384.6-131.04l0.68,0.58C384.89-131.12,384.71-131.17,384.6-131.04z"/>
						<path class="st2" d="M383.55-134.68c-0.41-0.3-0.82-0.6-1.19-0.93c0.41,0.41,0.88,0.78,1.34,1.15L383.55-134.68z"/>
						<polygon class="st2" points="386.22,-127.73 385.64,-127.91 386.59,-127.53 						"/>
						<path class="st2" d="M387.6-126.01c-0.45-0.11-0.08,0.71-0.45,0.51c0.4,0.45,0.91,0.7,1.4,0.89
							C388.12-124.88,387.82-125.32,387.6-126.01z"/>
						<path class="st2" d="M389.31-124.24c-0.22-0.14-0.48-0.25-0.76-0.37C388.77-124.45,389.02-124.32,389.31-124.24z"/>
						<path class="st2" d="M386.09-129.23c-0.03,0.11-0.15,0.35,0.06,0.8l0.14-0.52C386.22-129.04,386.16-129.14,386.09-129.23z"/>
						<path class="st2" d="M386.29-128.97l0,0.02c0.21,0.3,0.36,0.51,0.42,0.6C386.66-128.44,386.53-128.62,386.29-128.97z"/>
						<path class="st2" d="M386.04-129.3c0.02,0.03,0.03,0.04,0.05,0.07C386.1-129.28,386.1-129.31,386.04-129.3z"/>
						<path class="st2" d="M384.43-132.6c0.47,0.3,1.25,1.03,1.01-0.02C385-132.76,385.14-132.16,384.43-132.6z"/>
						<path class="st2" d="M386.22-129.95c-0.15-0.26-0.32-0.51-0.45-0.79c-0.08,0.08-0.13,0.31-0.36,0.17
							C385.65-130.34,385.94-130.15,386.22-129.95z"/>
						<polygon class="st2" points="386.6,-129.67 386.22,-129.95 386.39,-129.66 						"/>
						<path class="st2" d="M388.58-125.68c0.39,0.19,0.7,0.5,1.04,0.84c-0.28-0.45-0.63-0.86-0.92-1.28
							C388.55-126.09,388.23-126.12,388.58-125.68z"/>
						<path class="st2" d="M387.5-127.31c0.02,0.02,0.05,0.04,0.07,0.06C387.56-127.32,387.55-127.36,387.5-127.31z"/>
						<polygon class="st2" points="392.84,-121.26 392.84,-121.37 392.77,-121.33 						"/>
						<path class="st2" d="M388.71-126.24c-0.17-0.36-0.4-0.48-0.63-0.58c0.21,0.21,0.42,0.44,0.63,0.7
							C388.77-126.13,388.8-126.15,388.71-126.24z"/>
						<path class="st2" d="M390.36-123.36c-0.07-0.21-0.17-0.44-0.28-0.67C390.11-123.79,390.23-123.34,390.36-123.36z"/>
						<path class="st2" d="M387.55-127.07l-0.05-0.04C387.51-126.95,387.54-126.99,387.55-127.07z"/>
						<path class="st2" d="M387.55-127.07c0.17,0.12,0.35,0.19,0.52,0.25c-0.17-0.17-0.34-0.32-0.51-0.43
							C387.57-127.19,387.57-127.13,387.55-127.07z"/>
						<path class="st2" d="M395.81-122.21c-0.32,0.23-1.32-0.19-1.62-1.11c-0.77-0.43-1.38,0.89-1.36,1.94
							c0.14-0.1,0.26-0.21,1.07,0.25c-0.04-0.19-0.3-0.62-0.46-0.97c-0.15-0.35-0.17-0.65,0.2-0.49c0.98,0.68,0.59,0.76,0.85,1.31
							c0-0.68,1.58,0.52,1.9-0.18l-0.91-0.52C395.55-122.06,395.94-121.94,395.81-122.21z"/>
						<path class="st2" d="M391.71-122.67l-0.28-0.24c0.23,0.36,0.32,0.7,0.47,1.33c0.55,0.34,0.76,0.31,0.88,0.25
							c-0.42-0.44-0.79-0.93-1.19-1.39L391.71-122.67z"/>
						<path class="st2" d="M390.31-124.16c0.52-0.07,1.24,0.47,1.23-0.24c-0.74-0.78-0.77-0.33-1.34-0.69
							c1.24,1.24-0.52-0.22,0.14,0.89c-0.28-0.21-0.51-0.43-0.72-0.64c0.17,0.27,0.33,0.54,0.46,0.81c0-0.02,0-0.03-0.01-0.05
							l-0.01-0.01l0.01,0c-0.01-0.09,0-0.13,0.03-0.05c0.01,0,0.02,0.02,0.03,0.02C390.19-124.14,390.25-124.15,390.31-124.16
							c0.27,0.44-0.03,0.14-0.18,0.05c-0.02,0.01-0.04,0.01-0.06,0.03l0,0.01l1.35,1.16C391.22-123.23,390.9-123.57,390.31-124.16z"
							/>
						<path class="st2" d="M386.7-132.36c0,0.07-0.03,0.08-0.05,0.1C386.75-132.19,386.8-132.18,386.7-132.36z"/>
						<path class="st2" d="M386.87-131.62c-0.12-0.07-0.32-0.06-0.5-0.43c-0.08-0.37,0.17-0.11,0.28-0.21
							c-0.23-0.14-0.72-0.55-0.48,0.22l0.11,0.07c0.13,0.33,0.2,0.77,0.23,1.1c0.05,0.33,0.04,0.57-0.02,0.54
							C386.7-130.72,386.8-131.01,386.87-131.62z"/>
						<path class="st2" d="M388.6-127.9l1.04,1.02l-0.15-0.82l-0.15,0.17C388.91-128.23,388.8-127.92,388.6-127.9z"/>
						<polygon class="st2" points="392.81,-121 392.34,-120.82 393.41,-120.68 						"/>
						<polygon class="st2" points="394.22,-119.71 393.9,-119.48 394.43,-119.3 						"/>
						<path class="st2" d="M488.95-121.58c0.08-0.11,0.15-0.24,0.22-0.36C489.05-121.78,488.99-121.67,488.95-121.58z"/>
						<path class="st2" d="M486.72-119.69l0.07,0.2C486.83-119.66,486.82-119.76,486.72-119.69z"/>
						<path class="st2" d="M435.91-99.98c0.58,0.44,1.23,1.1,1.2,0.65l-0.15-0.46C436.52-99.76,436.18-99.85,435.91-99.98z"/>
						<path class="st2" d="M466.76-105.86c-0.07-0.02-0.14-0.04-0.21-0.07c-0.09,0.19-0.18,0.36-0.26,0.52
							C466.44-105.54,466.59-105.69,466.76-105.86z"/>
						<path class="st2" d="M466.57-107.69l0.83,0.01C467.2-107.71,466.93-107.72,466.57-107.69z"/>
						<path class="st2" d="M499.01-133.83c-0.03-0.21-0.06-0.42-0.1-0.63C498.5-133.86,498.86-134,499.01-133.83z"/>
						<path class="st2" d="M410.01-108.25c0.38,0.43,0.74,0.68,1.08,0.86C410.6-107.88,410.33-108.47,410.01-108.25z"/>
						<path class="st2" d="M491.11-117.36c0.15-0.23,0.17-0.37,0.1-0.44C491.06-117.57,490.99-117.4,491.11-117.36z"/>
						<path class="st2" d="M412.5-106.7c-0.07-0.08-0.14-0.14-0.21-0.22c-0.39-0.11-0.78-0.23-1.2-0.47
							C411.44-107.01,411.89-106.66,412.5-106.7z"/>
						<path class="st2" d="M508.48-188.8c0.01-0.05,0-0.1,0.01-0.14C508.43-188.93,508.45-188.88,508.48-188.8z"/>
						<path class="st2" d="M505.84-206.45c0.11,0.14,0.25,0.39,0.38,0.63C506.19-205.96,506.08-206.15,505.84-206.45z"/>
						<path class="st2" d="M399.89-114.49C399.56-114.73,399.81-114.5,399.89-114.49L399.89-114.49z"/>
						<path class="st2" d="M399.46-117.07c0.1,0.02,0.19,0.01,0.26-0.06C399.62-117.07,399.54-117.05,399.46-117.07z"/>
						<path class="st2" d="M417.22-107.48c0.01,0,0.02,0.01,0.03,0.01C417.18-107.58,417.19-107.56,417.22-107.48z"/>
						<path class="st2" d="M399.54-115.03c0.08,0.14,0.19,0.28,0.32,0.43C399.82-114.68,399.72-114.82,399.54-115.03z"/>
						<path class="st2" d="M399.48-114.82c-0.1-0.1-0.18-0.18-0.25-0.26C399.14-115.06,399.15-114.99,399.48-114.82z"/>
						<path class="st2" d="M400.35-114.15c-0.18-0.14-0.34-0.3-0.48-0.45c0.04,0.07,0.05,0.11,0.03,0.11
							C399.99-114.42,400.12-114.32,400.35-114.15z"/>
						<path class="st2" d="M510.72-157.94c0.02-0.02,0.03-0.05,0.05-0.07C510.66-158.43,510.66-158.26,510.72-157.94z"/>
						<path class="st2" d="M446.3-104.02c-0.02,0-0.03,0.02-0.04,0.02c0.02,0,0.04,0.01,0.06,0.01L446.3-104.02z"/>
						<path class="st2" d="M447.65-104.38c-0.55,0.56-0.89,0.5-1.33,0.4l0.5,1.24L447.65-104.38z"/>
						<path class="st2" d="M493.78-126.61c-0.3,0.16-0.61,0.3-0.93,0.44c0.31-1.26,0.98-1.75,0-1.45c0.95,1.04-2.4,2.74-1.52,3.79
							l-0.66,0.23c0.14-0.11,0.1-0.19,0.24-0.3c-1.33,0.37,0.03,1.33-1.26,2.29c-0.46,0.31-0.9,0.4-0.72,0.04l-0.7,1.05
							c-0.29,0.21-0.38-0.02-0.09-0.23l-1.34,1.31l-0.01-0.04c-0.07,0.33-0.34,0.96-0.49,1.26c-0.5,0.14,0.1-0.26-0.1-0.32
							l-0.62,0.9c-0.55-0.02-0.08-0.82,0.51-1.22c-1.61-0.48-0.45,0.83-2.6,1.44c0.23-0.23,0.46-0.46,0.68-0.72
							c-0.95-0.23-1.41,0.41-2.57,0.65c0.34,0.06,2.49-0.28,1.78,0.64c-0.32,0.1-0.68,0.3-1.02,0.88c-0.29-0.4-0.68,0.07-1.29,0.48
							l-0.31-0.56c-0.56,0.58-0.33,0.82-0.57,1.32c-0.79,0.43-1.2,0.11-1.59-0.14c-1.26,0.65,1.26,0.18-0.12,1.14
							c-1.16,0.37-1.72,1.04-2.81,2.04c-0.85,0.19-0.05-0.41-0.41-0.44l-0.42,0.79c-0.17,0.07-0.19-0.09-0.2-0.18
							c-0.46,0.46,0.25,0.59-0.56,1.2c0.07,0.79-2.27-0.07-3.04,1.16c-0.35-0.04-0.02-0.42-0.21-0.61
							c-1.31,1.16-1.16,0.89-2.18,2.07l-1.24,0.04c0.97,0.14,0.15,1.08-0.64,1.82c0.37,0.12,0.69,0.22,0.9,0.26l-1.39,0.83
							c-0.22-0.04-0.13-0.3,0.03-0.63c-0.09,0.08-0.17,0.17-0.23,0.24c-0.61-0.04-0.44-0.49-0.18-0.96
							c0.22,0.06,0.44,0.13,0.66,0.19c0.24-0.49,0.44-1.01,0.23-1.34c-0.07,0.1-0.23,0.22-0.42,0.33c0.06-0.13,0.09-0.24,0.02-0.29
							c-0.07-0.05-0.18,0.14-0.36,0.37l-0.56-0.56l0.01,0.3c-0.68,0.07-1.35,0.16-2.04,0.18c-1.16,1.08-2.1,2.47-4.33,3.26
							c0.45-0.64-0.07-0.86-0.17-1.47c0.75,0.48,1.67-0.63,2.83-0.84c-0.61,0.1-0.55-0.22-0.43-0.36c-0.62,0.39-1.26,0.71-1.9,1.07
							c-0.07-0.5-0.52-0.27-1.1-0.35c0.31,0.44-0.04,0.69-0.56,0.9c-0.53,0.18-1.23,0.29-1.63,0.52c-0.11-0.32,0.03-0.7,1.07-0.8
							c-1.27-0.54-1.26,1.42-2.5,0.99c0.25-0.05,0.4-0.03,0.47-0.21c-0.54,0.43-2.04,0.35-1.73,0.02l0.25-0.04
							c-0.85,0.03-2.13,0.24-3.22,0.44c-1.1,0.2-2.01,0.51-2.12,0.95c-0.02-0.11,0.16-1.04,0.25-1.22c-0.94,1.05-1.92,2-2.95,2.99
							c0.25-0.74-0.81-2.45,0.59-2.9c-0.41-0.09-0.9-0.2-1.75,0.08c0.27,0.1,0.7,1.04,0.32,1.11c-1.05-0.78-0.73-0.43-1.99-1.17
							c0.41,0.17-0.07,1.3-0.73,1.24c0.11-0.17-0.02-1.13,0.22-1.24l-1.67,1.06c0.42-0.19,0.12-0.95-0.23-1.28
							c0.15,0.23-1.39-0.08-1.83,0.02l0.67,0.29c-0.91-0.1-1.39,0.19-1.88,0.55c-0.49,0.35-0.99,0.71-1.91,0.57
							c0.26-0.2,0.72-1.35-0.18-1.61c-0.25,0.26-0.81,0.89-1.53,1.48c-0.36,0.3-0.77,0.58-1.2,0.81c-0.42,0.2-0.86,0.33-1.29,0.35
							l-0.25-0.39l-1.34,0.1c0.98-0.69,3.46-1.98,4.72-2.6c-0.64-0.34-0.13-0.41-1.15-0.5c-0.31-0.35,0.62-0.39,0.92-0.38
							c-0.38-0.09-0.77-0.15-1.15-0.25l-1.13-0.34c-0.02,0.68-1.9,0.29-1.93,0.86l2.66-0.15c0,0.68-1.81,1.57-3.49,1.1
							c-0.37-0.35,0.58-1.1,0.59-1.33c-0.26,0.18-1.67,0.1-1.78-0.09l0.79-0.2c-0.86-0.41-1.72,0.52-2.63-0.43
							c-0.37-0.15-0.87-1.16-1.05-0.8c0.38,0.91-0.13,3.24-0.72,3.66c-0.13-0.09-1.84-1.31-2.15-1.8c-0.44-0.76,1.39-1.08,1.02-1.73
							c-0.08,0.17-0.49,0.28-0.66,0.31c-0.34-0.28,0.33-0.46-0.53-0.69c-0.36,0.59-1.68-0.71-0.59,0.39
							c-0.89-0.14-0.83-0.47-1.8-0.81c0.15,0.53-1.42,1.06-2.34,0.91c0.12-0.14,0.02-0.42-0.04-0.55c-1.67-0.76-2.39-1.54-3.93-2.26
							c-0.07-0.22-0.71-0.75-0.26-0.86c-0.27,0-0.58,0.11-1.06-0.1c-0.3-0.52-0.04-0.38,0.26-0.27c0.31,0.11,0.64,0.21,0.46-0.27
							c-0.26,0.35-1.43-0.17-2.19-0.33c-0.09,0.63,1.41,1.02,2.21,1.08c-0.19,0.37-0.69,0.63-1.35,0.7
							c-0.65,0.05-1.49-0.07-2.37-0.36c-1.36-0.55-0.26-0.79-0.54-0.81c-2.26-1.47-2.78,0.07-4.32-1.73
							c-0.43-0.96,0.57-0.9,0.63-1.34c1.07,0.49,1.27,1.31,1.94,1.73c-0.23-0.25-0.44-0.51-0.66-0.76c0.4,0.07,1.11,0.39,1.4,0.72
							c-0.21-0.37-1.12-1.03-2.16-1.79c-1.04-0.76-2.26-1.57-2.92-2.39c-0.39-0.09-0.99-0.34-0.9,0.02l0.55,0.35
							c0.2,0.73-1.32-0.31-0.8,0.38c-0.87-0.32-1.95-0.59-2.77-1.57l0.22-0.62c-0.1,0.15,0.4,0.8,0.79,0.88
							c-0.58-0.13-0.94-1.84-1.9-1.6l0.4,0.88c-0.92-0.3-2.13-0.64-2.82-1.55c-0.04,0.8,0.23,0.13,0.33,1.2
							c0.05-0.57,0.56-0.06,1.04,0.41c0.49,0.45,0.99,0.82,0.85,0.13c0.1,1.14,0.87,1.16,1.26,2.39c0.1-0.18-0.05-0.54,0.62,0.14
							c0.07-0.02,0.2-0.01,0.27-0.01c0.02,0.02,0.02,0.03,0.04,0.05l-0.03-0.05c0.05,0,0.06,0-0.01-0.02
							c-0.12-0.21-0.19-0.41-0.18-0.55c0.66-0.07,1.79,0.9,2.34,1.01c0.4,0.4-0.33,0.05-0.21,0.4l0.83,0.14
							c-0.21,0.4,0.78,1.46-0.46,0.91l0.97,0.7c0.43,0.61,1.18,1.25,1.77,1.43c0.41,0.41,1.44,0.39,0.85,0.41
							c0.58,0.25,1.17,0.48,1.76,0.72l-0.04,0.1c1.59,0.97,3.59,1.33,5.15,2.9c0.61,0.17,1.25,0.32,2.13,0.89l0.02,0.44
							c0.76,0.26,2.06,1.32,2.54,1.07c0.21,0.64,1.1,1.05,2.1,1.38c0.5,0.15,1.02,0.31,1.5,0.46c0.48,0.14,0.93,0.23,1.25,0.38
							l0.21-0.47c0.92,0.3,1.86,0.43,3.06,0.58l0.05-0.45c0.54-0.04,1.14,0.26,1.83,0.53c0.69,0.27,1.45,0.59,2.25,0.74
							c-0.14,0.14-0.54,0.02-0.8-0.15c1.72,1.38,4.15,0.18,5.78,1.05c0.46-0.11,0.77-0.01,1.06,0.14c-0.04,0-0.08,0-0.11,0.01
							c0.04,0.01,0.11,0.02,0.18,0.03c0.18,0.1,0.37,0.21,0.58,0.31c-0.17-0.13-0.34-0.24-0.48-0.3c0.34,0.03,0.86,0.04,1.37-0.01
							l0.17,0.51c0.04,0,0.07,0,0.12,0c0.48,0.24,0.42-0.18,0.19-0.57c0.26-0.05,0.5-0.11,0.69-0.21c0.33,0.83,1.33-0.19,1.82,0.66
							c0.36-0.39,2.55-0.2,2.83-1.04c0.01,0.11,0.16,0.17-0.11,0.17c0.55,0.12,1.11,0.24,1.61,0.02l0.24,0.61l1.2-0.85
							c0.74,0.35,1.06,0.56,0.33,1.05c1.75-0.78,1.44-0.28,2.9-1.12l-0.05,0.4c0.54-0.06,1.35-0.65,1.7-0.35
							c0.63,0.36,2.12,0.18,3.84-0.02c0.86-0.08,1.77-0.28,2.67-0.37c0.9-0.1,1.78-0.17,2.58-0.19c-0.84-1,1.53,0.18,1.44-0.72
							c0.24,0.23,0.7,0.28,0.27,0.63c1.48-0.62,2.44-0.21,3.29-1.23c0.26,0.22-0.21,0.48-0.01,0.59c0.11-0.09,0.42-0.37,0.63-0.26
							c0.21,0.11-0.16,0.29-0.37,0.47c1.57-0.49,1.45-1.41,1.31-2.19c0.89,0.1,1.27-0.09,1.64-0.77c0.35,0.16,0.9,0.26-0.02,0.67
							c0.56-0.1,3.36-0.89,3.18-1.49c0.22,0.08,0.75-0.24,0.86-0.37c1.16-0.48,1.29-0.48,2.39-1.04l-0.36,0.05
							c0.12-0.9,0.86-0.57,1.71-1.12l0.01,0.08c2.28-0.56,0.77-0.65,3.04-1.19l-0.34-0.36c-0.34-1.01,2.04-0.44,2.95-1.49
							l-0.54,0.02c0.41-0.68,2.43,0.11,3.12-0.18c0.18-0.01-0.13,0.26-0.28,0.43c1.95-0.54-0.12-0.64,0.95-1.57
							c0.41,0.13,0.21,0.91,1.03,0.4c0.27-0.03,0.69-0.66,1.2-1.3c0.52-0.65,1.09-1.36,1.81-1.5c-0.39-0.03-0.77-0.06-0.38-0.62
							c0.74-0.66,2.74-0.97,2.88-2.19c0.14-0.03,0.23-0.01,0.27,0.03c0.46-0.64,1.6-1.95,1.63-2.59c1.73,0.73,2.74-3.95,3.84-2.88
							l1.49-1.84l0.08,0.15c1.08-1.07,1.1-1.75,1.15-2.39c0.3-0.21,0.25,0.08,0.3,0.15c1.62-1.53,1.68-1.79,2.13-3.72l0.52,0.13
							c0.03-0.28,0.65-0.82,1.32-1.59c0.67-0.76,1.46-1.71,1.73-2.81c0.04,0.05,0.1,0.13,0.07,0.32c0.74-2.35,4.03-4.54,2.77-6.15
							l0.25-1.64c-0.98,1.82-0.59-0.6-1.21,0.05c0.23-0.77,1.35-1.67,1.03-0.73l-0.15,0.11c0.35,0.35,0.71-0.19,1-0.8
							c0.29-0.62,0.56-1.28,0.85-1.14c1.44-3.81,3.1-7.49,3.92-11.27l-0.81,0.28c0.12-0.43,0.23-0.86,0.31-1.29
							c0.23-0.31,0.65-0.36,0.45,0.58c0.5-0.42-0.06-1.65-0.21-1.7c0.62-1.79,0.71,0.87,0.83,0.31l0.08-0.78l-0.12,0.16
							c-0.19-0.68-0.46-0.78-0.27-1.9c0.24-0.7,0.49-0.31,0.56-0.59c0.05,0.01,0.09-0.08,0.08-0.43l0.28-1.67l-0.66,0.61
							c-0.18-0.77,0.22-1.56-0.52-0.86c0.57-0.51,0.76-2.07,0.88-3.57c0.06-1.51,0-2.97,0.17-3.32c-0.4-1.05-0.44-2.06-0.41-3.34
							c-0.11,0.32-0.74,0.53-0.72-0.56c1.35,0.33,0.5-2.03,1.34-2.99c-0.55,0.85-0.47-3.11-1.24-1.76
							c-0.01-0.92,0.49-0.11,0.71-0.84c-0.76-2.1-0.4-4.84-1.18-7.46c-0.18,0-0.33,0.5-0.73,0l0.51-1.6
							c-0.22-0.5-1.09-0.22-0.78-1.32c-0.1,0.17-0.26,0.43-0.42,0.1c-0.29-2.67-1.37-5.19-2.47-7.66c-1.1-2.49-2.26-4.92-2.88-7.67
							c0.06,0.81-0.21,0.39-0.49-0.09c0.1,0.36-0.38,0.2-0.56,0.38c-0.16-0.77-0.36-1.52-0.56-2.28c-0.76-0.02-1.31-2.03-1.98-1.88
							l0.48,0.53c-1.13-0.38-0.69,1.99-1.6,2.37c0.62,0.22,0.7,0.96,0.86,1.74c0.14,0.79,0.33,1.62,1.27,2.06
							c0,0.41-0.42-0.13-0.52,0.15c0.57,0.17,0.86,0.6,1.13,1.52l-0.14-0.05c1.26,2.33,1.36,3.55,2.17,6.39l0.37-0.37
							c0.16,0.62,0.07,0.8,0.06,1.12c0.93,0.44-0.59-1.69,0.39-1.35c-0.58,1.12,1.51,4.27,0.59,5.15c0.27,0.94,0.45-0.43,0.71,0.51
							l-0.21,0.33l0.44,0.13c0.13,0.63-0.16,1.05-0.4,1.13c-0.01-0.16-0.17-0.41-0.24-0.56c-0.12,0.88,0.68,2.23,0.65,2.53
							l-0.05-0.95c0.92,2.52,1.11,5.78,2,8.27l0.2-0.22c0.6,1.93-0.05,1.6,0.28,3.75l-0.06-0.08c0.25,0.42,0.39,1,0.4,1.59
							c-0.28-0.54-0.47,1.05-0.79,0.34c0.48,2.12,0.37,1.04,1.22,2.46l-0.38,0.33c0.32,0.49,0.5,0.53,0.57,1.63
							c-0.3-0.91-0.58,0.68-0.98-0.33c-0.83,2.23,0.63,3.43-0.61,4.38c0.94,1.14,0.72-1.92,0.89-1.32c0.37-0.47,0.7,0.92,0.54,1.64
							c-0.06,0.74-1.44,1.11-1.64,2.91c0.03-0.18-0.05-0.2-0.02-0.38c-0.35,0.64,0.2,1.38-0.38,2.13c0.53,0.57-0.23,1.06,0.53,1.34
							l0.12-1.69c0.03,0.96,0.81,2.03,0.05,3.5c-0.12-0.15-0.23-0.65-0.3-1c-0.3,0.41-0.02,0.9-0.37,1.32
							c-0.72-0.29,0.24-2.04-0.18-3.14c-0.41,0.42,0.23,1.99-0.53,1.33c0.96,0.94-0.5,1.71,0.04,3.1l-0.44-0.19
							c0.03,0.21,0.16,0.65,0.06,1l-0.45-0.78c0.31,1.1-0.93,1.73-0.91,2.71c0.53-1.91,0.67-0.27,1.24-1
							c-0.09,2.55-1.52,1.05-2.18,3.69c0.05-0.37,0.72-1.23,0.74-0.61c-0.26,0.47-0.66,1.06-0.99,1.28
							c-0.49,1.75,0.55-0.1,0.58,0.73c-0.73,0.4-0.09,0.92-0.21,1.74l-0.45-0.17c-1.06,1.82,0.75,0.9-0.33,2.5
							c-0.09-0.33-0.19-0.66-0.31-0.99c-0.06,0.33-0.14,0.65-0.23,0.97l-0.42-0.4c-0.06,1.13-0.3,1.39-0.86,2.27
							c0.4-0.08,0.76,0.51,0.34,1.34c-0.55,0.44-0.25-0.52-0.79,0.68c-0.13-0.4-0.33-0.86,0.33-1.17c-0.11-0.12-0.14-0.39-0.25-0.51
							c-0.6,0.45-0.84,1.47-1.05,1.89c0.1-0.15,0.22-0.33,0.33-0.4c-0.1,0.66-0.16,1.34-0.29,1.99c-0.31,0.17-0.32-0.1-0.33-0.38
							c-0.15,0.36-0.08,0.69-0.33,1.21c-0.27-0.32-0.64-0.49-0.4-1.27l-0.51,1.77c-0.21,0.02-0.86,0.56-0.87,0.28
							c-0.71,0.71-0.65,2.46-1.64,3.39c0.02,0.1,0,0.25-0.11,0.51c-0.8,0.96-1.79,1.58-2.29,3.05l-1.06,0.22
							c-0.58,1,1.39-0.34,0.41,1.34c-0.71,1.19-0.79,0-1.25,0.24c-0.18,0.72-0.38,2.13-1.67,2.65
							C493.26-126.12,493.57-126.28,493.78-126.61z M483.41-116.86c0.17-0.24,0.43-0.81,0.76-0.7
							C484.25-116.94,483.88-117.01,483.41-116.86z M464.43-106.05c0.15-0.22,0.48-0.25,0.88-0.19
							C465.07-106.11,464.78-106.03,464.43-106.05z M403.72-112.19c0.01,0,0.03,0,0.04,0C404.19-111.66,404.04-111.86,403.72-112.19
							z M402.72-113.15c-0.15-0.02-0.18,0.04-0.17,0.12c0.15-0.04,0.41,0.12,0.67,0.35C403.21-112.83,403.11-113,402.72-113.15z
							 M514.6-161.55l-0.16,0.25C514.38-161.92,514.48-161.74,514.6-161.55z"/>
						<path class="st2" d="M466.58-107.47c0.1,0.05,0.15,0.13,0.2,0.21C466.86-107.37,466.83-107.46,466.58-107.47z"/>
						<path class="st2" d="M499.03-133.71l0.03-0.03c-0.01-0.04-0.03-0.06-0.05-0.08L499.03-133.71z"/>
						<path class="st2" d="M422.76-107.4c0.23,0.14,0.35,0.27,0.41,0.38C423.22-107.13,423.14-107.26,422.76-107.4z"/>
						<path class="st2" d="M396.49-117l0.77,0.47c-0.35-0.25-0.39-0.43-0.51-0.62C396.69-117.06,396.71-116.83,396.49-117z"/>
						<path class="st2" d="M393.24-124.41c-0.13-0.05-0.18-0.19-0.31-0.24l-0.14,0.18C393.15-124.09,393.53-123.94,393.24-124.41z"
							/>
						<path class="st2" d="M396.96-118.74c0.22-0.35-0.26-0.62-0.75-0.98c0.03,0.02,0.05,0.05,0.08,0.07
							C395.77-119.36,396.37-119.05,396.96-118.74z"/>
						<path class="st2" d="M396.1-119.81c-0.15-0.12-0.29-0.24-0.41-0.38C395.49-120.08,395.83-120,396.1-119.81z"/>
						<path class="st2" d="M401.13-113.92c-0.18-0.25-0.46,0.3-0.49,0.07C400.05-113.61,402.61-113.22,401.13-113.92z"/>
						<polygon class="st2" points="397.51,-120.07 397.33,-119.55 397.84,-119.62 						"/>
						<path class="st2" d="M400.86-116.75l-0.65-0.71c-0.04,0.07-0.17,0.04-0.31-0.03C400.34-117.1,400.78-116.62,400.86-116.75z"/>
						<path class="st2" d="M399.9-117.49c-0.23-0.2-0.46-0.38-0.65-0.42C399.38-117.81,399.67-117.6,399.9-117.49z"/>
						<polygon class="st2" points="398.56,-119.3 398.71,-119.04 399.2,-118.59 						"/>
						<path class="st2" d="M409.27-110.89l0.97,0.4c0.18-0.1-0.02-0.33-0.38-0.47C409.59-110.97,409.22-111.11,409.27-110.89z"/>
						<path class="st2" d="M407.3-113.64c0.17,0.25,0.14,0.34,0.18,0.56l0.36-0.51C407.66-113.61,407.47-113.62,407.3-113.64z"/>
						<path class="st2" d="M409.94-112.26c0.18-0.1,1.52,0.32,0.39-0.3C410.16-112.46,409.2-112.85,409.94-112.26z"/>
						<polygon class="st2" points="423.75,-105.33 423.49,-105.4 423.23,-104.42 						"/>
						<path class="st2" d="M437.4-105.03c-1.14-0.39-0.35,0.59-1.38,0.15c-0.31,0.2,0.84,0.36,0.53,0.53
							C437.3-104.51,437.66-104.32,437.4-105.03z"/>
						<path class="st2" d="M436.56-104.35c-0.12,0.03-0.25,0.06-0.38,0.11C436.39-104.27,436.49-104.31,436.56-104.35z"/>
						<polygon class="st2" points="504.77,-209.29 504.5,-210.09 504.5,-209.46 						"/>
						<path class="st2" d="M503.28-210.19l0.44-0.52l-0.75-0.08C503.09-210.65,503.33-210.39,503.28-210.19z"/>
						<path class="st2" d="M480.94-116.72l0.04,0.16c0.19,0.07,0.34-0.02,0.64-0.2L480.94-116.72z"/>
						<polygon class="st2" points="489.21,-122.7 489.08,-122.59 489.72,-122.39 						"/>
						<path class="st2" d="M494.54-129.42c-0.25,0.25-0.41,0.64-0.66,0.89C494.3-129.17,495.17-129.02,494.54-129.42z"/>
					</g>
				</g>
			</g>
		</g>
	</g>
	<ellipse class="st15" cx="-112.4" cy="506.6" rx="38.79" ry="39.22"/>
	<ellipse class="st20" cx="61.76" cy="522.15" rx="38.79" ry="39.22"/>
</g>
</svg>
